<svg id="Слой_1" data-name="Слой 1" xmlns="http://www.w3.org/2000/svg" viewBox="0 0 25 25"><defs><style>.cls-1{fill:#f15c2a;}.cls-2{fill:#fff;}</style></defs><title>апп</title><rect class="cls-1" width="25" height="25" rx="3.86"/><path class="cls-2" d="M17.2-34.26V-47.35c0-.06,0-.12,0-.18a4.17,4.17,0,0,1,1.66-2.69,4.36,4.36,0,0,1,2-.8H34L34-51a4.25,4.25,0,0,1,3.62,4.21c0,4,0,8,0,11.93a4.86,4.86,0,0,1,0,.66,4.2,4.2,0,0,1-4.11,3.62H21.3a4,4,0,0,1-3.22-1.61A4.3,4.3,0,0,1,17.2-34.26Zm1.21-6.55c0,1.94,0,3.89,0,5.83a4.17,4.17,0,0,0,.06.71,3,3,0,0,0,3,2.46H33.33A3.17,3.17,0,0,0,34.39-32a3,3,0,0,0,2-3V-46.68a3.68,3.68,0,0,0-.06-.66,3,3,0,0,0-3-2.47H21.48a3,3,0,0,0-2.67,1.51,3.17,3.17,0,0,0-.39,1.63C18.41-44.72,18.41-42.76,18.41-40.81Z" transform="translate(-14.93 53.3)"/><path class="cls-2" d="M25.28-37.4H21.61a1,1,0,0,1-1-.93,1,1,0,0,1,.77-1.07,1.53,1.53,0,0,1,.3,0h1.7a.28.28,0,0,0,.28-.17l2.49-4.3a.33.33,0,0,0,0-.37c-.22-.39-.46-.78-.66-1.18a1,1,0,0,1,.21-1.11,1,1,0,0,1,1.12-.22,1.13,1.13,0,0,1,.49.43c.13.2.13.2.26,0A1,1,0,0,1,29-46.7a1,1,0,0,1,.32,1.41c-.29.54-.6,1.07-.91,1.6l-2.34,4c-.12.21-.12.21.12.21h1.7a.3.3,0,0,1,.3.18l.95,1.66c.1.17.09.19-.12.19Z" transform="translate(-14.93 53.3)"/><path class="cls-2" d="M32.2-34.77a1,1,0,0,1-.92-.57l-1.15-2c-.72-1.25-1.43-2.5-2.16-3.74a.36.36,0,0,1,0-.42c.31-.52.61-1.06.92-1.59.13-.23.15-.23.28,0,.66,1.14,1.33,2.29,2,3.44a.39.39,0,0,0,.38.22h1.65a1,1,0,0,1,1.07,1,1,1,0,0,1-1.08,1h-.48c-.23,0-.23,0-.11.22s.34.58.5.88a1,1,0,0,1-.55,1.48A1,1,0,0,1,32.2-34.77Z" transform="translate(-14.93 53.3)"/><path class="cls-2" d="M23.11-36.63h1c.13,0,.17,0,.1.16-.24.41-.46.83-.72,1.22a1,1,0,0,1-1.39.33,1,1,0,0,1-.35-1.38.5.5,0,0,1,.56-.34,7.12,7.12,0,0,0,.8,0Z" transform="translate(-14.93 53.3)"/></svg>