<svg id="Слой_1" data-name="Слой 1" xmlns="http://www.w3.org/2000/svg" viewBox="0 0 25 25"><defs><style>.cls-1{fill:#f15c2a;}.cls-2{fill:#fff;}</style></defs><title>гугл</title><rect class="cls-1" width="25" height="25" rx="3.86"/><path class="cls-2" d="M56.3-31.21a2.14,2.14,0,0,1-1.43-1,2,2,0,0,1-.34-1.09V-48.31a2.11,2.11,0,0,1,3-1.87c.83.42,1.63.91,2.44,1.38l10.64,6.07a2.16,2.16,0,0,1,1.19,1.58,2,2,0,0,1-.87,2.1c-.78.53-1.63.95-2.44,1.42L57.9-31.58a3.49,3.49,0,0,1-.89.37Zm-.45-9.58v7.23c0,.11,0,.21,0,.32a.72.72,0,0,0,.41.63c.22.13.28.11.43-.1l5.65-7.86a.32.32,0,0,0,0-.43c-1.88-2.6-3.76-5.22-5.63-7.83-.18-.25-.26-.26-.52-.09a.87.87,0,0,0-.35.8Zm14.66,0a.84.84,0,0,0-.52-.77l-3.6-2.06c-.12-.07-.19-.07-.28,0-.62.87-1.24,1.75-1.87,2.61a.26.26,0,0,0,0,.36c.63.86,1.25,1.72,1.87,2.59.09.13.16.13.29.06l1.71-1L70-40A.83.83,0,0,0,70.51-40.79Zm-11.34-7a.3.3,0,0,0,.08.18l4,5.5c.1.15.14.1.22,0,.5-.71,1-1.42,1.53-2.12.1-.15.08-.21-.07-.29L60.54-47Zm0,13.9.09,0,5.67-3.23c.13-.08.11-.13,0-.23L63.42-39.5c-.1-.14-.14-.12-.23,0L59.27-34A.31.31,0,0,0,59.17-33.84Z" transform="translate(-50.01 53.3)"/></svg>