<svg id="Слой_1" data-name="Слой 1" xmlns="http://www.w3.org/2000/svg" viewBox="0 0 250 65.88"><defs><style>.cls-1{fill:#f15c2a;}.cls-2{fill:#fff;}</style></defs><title>knopa</title><rect class="cls-1" width="250" height="65.88" rx="13.53"/><path class="cls-2" d="M74.19,35v.05A2.63,2.63,0,0,1,76,37.66q0,3.57-4.47,3.57a7.53,7.53,0,0,1-2.39-.33c-1-.31-1.45-.84-1.45-1.59s.36-1,1.07-1a2.34,2.34,0,0,1,.9.19c.45.18.74.29.85.32a4.06,4.06,0,0,0,1.07.11c1.16,0,1.73-.45,1.73-1.35a1.34,1.34,0,0,0-.4-1,1.39,1.39,0,0,0-.9-.39c-.1,0-.43,0-1,0-1.07,0-1.61-.36-1.61-1.07a1,1,0,0,1,.44-.8,1.71,1.71,0,0,1,.9-.27c.08,0,.4,0,1,0a1.82,1.82,0,0,0,1-.23,1,1,0,0,0,.5-.85c0-.82-.52-1.22-1.57-1.22a4.63,4.63,0,0,0-1.25.22,5,5,0,0,1-1.16.22q-1.08,0-1.08-1a1,1,0,0,1,.3-.64,4.38,4.38,0,0,1,3.26-1c2.7,0,4,1.05,4,3.14A2.31,2.31,0,0,1,74.19,35Z" transform="translate(0 -15.71)"/><path class="cls-2" d="M81.56,29.56a1.94,1.94,0,0,1,1.92,1.5l2.87,8.18a2.71,2.71,0,0,1,.18.82,1,1,0,0,1-.37.84,1.35,1.35,0,0,1-.92.33c-.64,0-1.1-.41-1.36-1.23l-.42-1.34h-4L79,40.09q-.37,1.14-1.26,1.14a1.2,1.2,0,0,1-.88-.33A1.17,1.17,0,0,1,76.5,40a2.27,2.27,0,0,1,.12-.75l3-8C80,30.12,80.65,29.56,81.56,29.56Zm-.09,2.82-1.29,4h2.58l-1.25-4Z" transform="translate(0 -15.71)"/><path class="cls-2" d="M89.27,41.09a2.13,2.13,0,0,1-1.37-.33,1.67,1.67,0,0,1-.38-1.3V31.55a2,2,0,0,1,.38-1.42,1.93,1.93,0,0,1,1.4-.4h2.12a5.11,5.11,0,0,1,2.62.63,2.41,2.41,0,0,1,1.31,2.19A2.5,2.5,0,0,1,94,35.06v0a2.7,2.7,0,0,1,1.44.91,2.75,2.75,0,0,1,.43,1.64,3.08,3.08,0,0,1-1.2,2.63,4.56,4.56,0,0,1-2.84.8Zm.83-9.15v2.22h1.12A2.28,2.28,0,0,0,92.29,34a1,1,0,0,0,.44-.94c0-.73-.5-1.1-1.51-1.1Zm0,4.24v2.69h1.29a2.68,2.68,0,0,0,1.22-.22,1.1,1.1,0,0,0,.54-1.06,1.24,1.24,0,0,0-.52-1.19,2.81,2.81,0,0,0-1.29-.22Z" transform="translate(0 -15.71)"/><path class="cls-2" d="M101.41,29.56a2,2,0,0,1,1.92,1.5l2.86,8.18a2.5,2.5,0,0,1,.19.82,1,1,0,0,1-.37.84,1.35,1.35,0,0,1-.92.33c-.64,0-1.1-.41-1.36-1.23l-.42-1.34h-4l-.45,1.43q-.37,1.14-1.26,1.14a1.2,1.2,0,0,1-.88-.33,1.17,1.17,0,0,1-.34-.88,2.27,2.27,0,0,1,.12-.75l3-8C99.84,30.12,100.5,29.56,101.41,29.56Zm-.09,2.82-1.29,4h2.58l-1.25-4Z" transform="translate(0 -15.71)"/><path class="cls-2" d="M110,36.49v2.9c0,1.23-.43,1.84-1.29,1.84s-1.29-.61-1.29-1.84v-8c0-1.23.43-1.85,1.29-1.85s1.29.62,1.29,1.85V34.1h4.75V31.43c0-1.23.44-1.85,1.31-1.85s1.29.62,1.29,1.85v8c0,1.23-.43,1.84-1.29,1.84s-1.31-.61-1.31-1.84v-2.9Z" transform="translate(0 -15.71)"/><path class="cls-2" d="M120.9,32.14a11.49,11.49,0,0,1-1.75-.08c-.69-.15-1-.52-1-1.12,0-.81.62-1.21,1.84-1.21h4.5c1.22,0,1.83.4,1.83,1.21,0,.6-.34,1-1,1.12a11.3,11.3,0,0,1-1.75.08v7.25c0,1.23-.43,1.84-1.29,1.84s-1.31-.61-1.31-1.84Z" transform="translate(0 -15.71)"/><path class="cls-2" d="M131.15,29.56a1.94,1.94,0,0,1,1.92,1.5l2.87,8.18a2.5,2.5,0,0,1,.19.82,1.07,1.07,0,0,1-.37.84,1.35,1.35,0,0,1-.92.33c-.65,0-1.1-.41-1.36-1.23l-.42-1.34h-4l-.46,1.43c-.25.76-.66,1.14-1.25,1.14a1.24,1.24,0,0,1-.89-.33,1.21,1.21,0,0,1-.34-.88,2.27,2.27,0,0,1,.12-.75l3-8C129.59,30.12,130.25,29.56,131.15,29.56Zm-.08,2.82-1.29,4h2.58l-1.26-4Z" transform="translate(0 -15.71)"/><path class="cls-2" d="M142.26,36.46l-.22-.17-3.36,4a2,2,0,0,1-1.38.9,1.12,1.12,0,0,1-.84-.37,1.14,1.14,0,0,1-.36-.82,2.19,2.19,0,0,1,.66-1.29l3.39-4-2.54-2.53-.67-.64a1.33,1.33,0,0,1-.37-.8,1.13,1.13,0,0,1,.4-.86,1.3,1.3,0,0,1,.89-.36c.34,0,.81.3,1.41.92l3,3.07V31.43c0-1.23.4-1.85,1.2-1.85a1,1,0,0,1,1,.59,3.29,3.29,0,0,1,.18,1.26v2.14l3-3.07c.61-.62,1.09-.92,1.44-.92a1.28,1.28,0,0,1,.89.36,1.15,1.15,0,0,1,.39.86,1.33,1.33,0,0,1-.37.8l-.67.64-2.54,2.53,3.41,4a2.2,2.2,0,0,1,.64,1.29,1.14,1.14,0,0,1-.36.82,1.11,1.11,0,0,1-.82.37,2,2,0,0,1-1.41-.9l-3.35-4-.24.17v2.93c0,1.23-.39,1.84-1.19,1.84s-1.2-.61-1.2-1.84Z" transform="translate(0 -15.71)"/><path class="cls-2" d="M159.19,34.16l-4.69,6.2a1.85,1.85,0,0,1-1.49.87c-.77,0-1.16-.52-1.16-1.55V31.43c0-1.23.43-1.85,1.29-1.85s1.29.62,1.29,1.85v5.31l4.78-6.31a1.74,1.74,0,0,1,1.37-.85c.8,0,1.21.58,1.21,1.75v8.06c0,1.23-.43,1.84-1.29,1.84s-1.31-.61-1.31-1.84Z" transform="translate(0 -15.71)"/><path class="cls-2" d="M165.39,32.14a11.49,11.49,0,0,1-1.75-.08c-.69-.15-1-.52-1-1.12,0-.81.61-1.21,1.84-1.21h4.49c1.23,0,1.84.4,1.84,1.21,0,.6-.35,1-1,1.12a11.21,11.21,0,0,1-1.75.08v7.25c0,1.23-.43,1.84-1.29,1.84s-1.3-.61-1.3-1.84Z" transform="translate(0 -15.71)"/><path class="cls-2" d="M178.94,34.16l-4.69,6.2a1.85,1.85,0,0,1-1.5.87c-.77,0-1.15-.52-1.15-1.55V31.43c0-1.23.43-1.85,1.29-1.85s1.29.62,1.29,1.85v5.31L179,30.43a1.77,1.77,0,0,1,1.38-.85c.8,0,1.2.58,1.2,1.75v8.06c0,1.23-.43,1.84-1.29,1.84s-1.3-.61-1.3-1.84Z" transform="translate(0 -15.71)"/><path class="cls-2" d="M80.25,67.09H69.79V68.7A1.75,1.75,0,0,1,69.3,70a1.9,1.9,0,0,1-1.36.48,1.66,1.66,0,0,1-1.8-1.8V65.42c0-1.16.53-1.74,1.61-1.74.3,0,.55-.26.73-.77a9.39,9.39,0,0,0,.26-2.65V53.65a4.56,4.56,0,0,1,1.19-3.32,4.33,4.33,0,0,1,3.28-1.22h6.26a2,2,0,0,1,1.86.83A4,4,0,0,1,81.76,52V63.68c1.41,0,2.12.58,2.12,1.74V68.7a1.59,1.59,0,0,1-1.8,1.8A1.82,1.82,0,0,1,80.74,70a1.75,1.75,0,0,1-.49-1.32Zm-8.41-3.41h5.8v-11H73.29c-.61,0-.92.33-.92,1v6.56A10.49,10.49,0,0,1,71.84,63.68Z" transform="translate(0 -15.71)"/><path class="cls-2" d="M85.09,58.11a9.57,9.57,0,0,1,2.26-6.59,8.92,8.92,0,0,1,12.69,0,9.64,9.64,0,0,1,2.26,6.61A9.55,9.55,0,0,1,100,64.7a8.15,8.15,0,0,1-6.35,2.61,8,8,0,0,1-6.34-2.64A9.39,9.39,0,0,1,85.09,58.11Zm4.33.06a6.41,6.41,0,0,0,1,3.68,3.74,3.74,0,0,0,3.28,1.69A3.8,3.8,0,0,0,97,61.88a6.48,6.48,0,0,0,1-3.71,6.72,6.72,0,0,0-1-3.77,3.74,3.74,0,0,0-3.31-1.75,3.69,3.69,0,0,0-3.3,1.75A6.72,6.72,0,0,0,89.42,58.17Z" transform="translate(0 -15.71)"/><path class="cls-2" d="M117.38,67.09H106.92V68.7a1.76,1.76,0,0,1-.5,1.32,1.86,1.86,0,0,1-1.35.48,1.67,1.67,0,0,1-1.81-1.8V65.42q0-1.74,1.62-1.74c.3,0,.54-.26.72-.77a8.93,8.93,0,0,0,.27-2.65V53.65a4.56,4.56,0,0,1,1.19-3.32,4.31,4.31,0,0,1,3.27-1.22h6.27a2,2,0,0,1,1.85.83,3.9,3.9,0,0,1,.43,2.07V63.68q2.13,0,2.13,1.74V68.7a1.59,1.59,0,0,1-1.8,1.8,1.84,1.84,0,0,1-1.35-.48,1.78,1.78,0,0,1-.48-1.32ZM109,63.68h5.81v-11h-4.35c-.61,0-.92.33-.92,1v6.56A10.23,10.23,0,0,1,109,63.68Z" transform="translate(0 -15.71)"/><path class="cls-2" d="M129.48,48.84a3.06,3.06,0,0,1,3,2.36l4.55,13a4.44,4.44,0,0,1,.29,1.29,1.64,1.64,0,0,1-.59,1.34,2.1,2.1,0,0,1-1.45.52c-1,0-1.74-.65-2.15-1.94l-.67-2.12h-6.37l-.73,2.25c-.39,1.21-1.06,1.81-2,1.81a1.93,1.93,0,0,1-1.4-.53,1.84,1.84,0,0,1-.54-1.38,3.76,3.76,0,0,1,.19-1.19l4.71-12.71C127,49.72,128,48.84,129.48,48.84Zm-.14,4.46-2,6.32h4.09l-2-6.32Z" transform="translate(0 -15.71)"/><path class="cls-2" d="M141.41,52.92a16.65,16.65,0,0,1-2.77-.13C137.55,52.56,137,52,137,51c0-1.27,1-1.9,2.91-1.9H147c1.94,0,2.91.63,2.91,1.9,0,1-.55,1.55-1.64,1.78a16.4,16.4,0,0,1-2.77.13V64.4c0,1.94-.69,2.91-2.05,2.91s-2.07-1-2.07-2.91Z" transform="translate(0 -15.71)"/><path class="cls-2" d="M150.39,58.11a9.62,9.62,0,0,1,2.26-6.59,8.92,8.92,0,0,1,12.69,0,9.59,9.59,0,0,1,2.26,6.61,9.5,9.5,0,0,1-2.26,6.59A8.14,8.14,0,0,1,159,67.31a8,8,0,0,1-6.35-2.64A9.44,9.44,0,0,1,150.39,58.11Zm4.33.06a6.34,6.34,0,0,0,1,3.68A3.73,3.73,0,0,0,159,63.54a3.81,3.81,0,0,0,3.28-1.66,6.55,6.55,0,0,0,1-3.71,6.72,6.72,0,0,0-1-3.77,3.74,3.74,0,0,0-3.3-1.75,3.7,3.7,0,0,0-3.31,1.75A6.72,6.72,0,0,0,154.72,58.17Z" transform="translate(0 -15.71)"/><path class="cls-2" d="M170,64.4V51.79c0-1.95.69-2.93,2-2.93s2,1,2,2.93v3.9l5.22-5.37c.93-1,1.68-1.46,2.26-1.46a2,2,0,0,1,1.39.58,1.82,1.82,0,0,1,.62,1.36,2,2,0,0,1-.59,1.26l-1,1-4.14,4.12,5.51,6.18a3.41,3.41,0,0,1,1,2,2,2,0,0,1-1.88,1.89,3.31,3.31,0,0,1-2.23-1.43l-5.43-6.32-.7.59V64.4q0,2.91-2,2.91C170.65,67.31,170,66.34,170,64.4Z" transform="translate(0 -15.71)"/><path class="cls-2" d="M12.89,60.89v-27c0-.12,0-.24.07-.37a8.68,8.68,0,0,1,3.43-5.56,9.07,9.07,0,0,1,4.08-1.65h27l.16,0A8.77,8.77,0,0,1,55.12,35c0,8.22,0,16.43,0,24.64A10.19,10.19,0,0,1,55,61a8.66,8.66,0,0,1-8.47,7.48q-12.6,0-25.21,0a8.33,8.33,0,0,1-6.66-3.32A8.83,8.83,0,0,1,12.89,60.89Zm2.5-13.51v12a8,8,0,0,0,.12,1.47A6.14,6.14,0,0,0,21.76,66Q34,66,46.19,66a7,7,0,0,0,2.18-.34,6.2,6.2,0,0,0,4.2-6.12V35.25a7.61,7.61,0,0,0-.12-1.35,6.1,6.1,0,0,0-6.19-5.1q-12.27,0-24.55,0a6.06,6.06,0,0,0-5.49,3.11,6.38,6.38,0,0,0-.83,3.36Z" transform="translate(0 -15.71)"/><path class="cls-2" d="M29.57,54.42H22a2.09,2.09,0,0,1-2.1-1.92,2.12,2.12,0,0,1,1.61-2.2,3.15,3.15,0,0,1,.61-.06c1.17,0,2.34,0,3.51,0a.6.6,0,0,0,.59-.35q2.55-4.44,5.12-8.88a.66.66,0,0,0,0-.76c-.47-.8-1-1.6-1.37-2.44a2,2,0,0,1,.42-2.28,2.1,2.1,0,0,1,2.32-.46,2.21,2.21,0,0,1,1,.88c.27.43.27.43.54,0a2.11,2.11,0,1,1,3.6,2.18c-.61,1.1-1.25,2.19-1.88,3.28L31.12,49.8c-.24.43-.24.43.26.43,1.17,0,2.34,0,3.5,0a.63.63,0,0,1,.63.36c.64,1.14,1.31,2.28,2,3.42.21.37.18.4-.25.4Z" transform="translate(0 -15.71)"/><path class="cls-2" d="M43.84,59.85A2.1,2.1,0,0,1,42,58.67l-2.37-4.1c-1.49-2.58-3-5.16-4.47-7.73a.74.74,0,0,1,0-.87c.65-1.08,1.26-2.18,1.9-3.27.27-.49.3-.49.58,0,1.36,2.36,2.73,4.72,4.09,7.09a.75.75,0,0,0,.77.46c1.14,0,2.28,0,3.42,0a2.1,2.1,0,1,1,0,4.19c-.33,0-.66,0-1,0s-.49,0-.24.45c.35.6.72,1.2,1,1.82a2.09,2.09,0,0,1-1.14,3.06A1.78,1.78,0,0,1,43.84,59.85Z" transform="translate(0 -15.71)"/><path class="cls-2" d="M25.08,56h2.06c.28,0,.35.09.21.34-.5.84-1,1.71-1.48,2.52a2.07,2.07,0,0,1-2.88.69,2.15,2.15,0,0,1-.72-2.86,1,1,0,0,1,1.17-.7,14.94,14.94,0,0,0,1.64,0Z" transform="translate(0 -15.71)"/><path class="cls-2" d="M201.87,68.49a4.74,4.74,0,0,1-3.16-2.11A4.47,4.47,0,0,1,198,64q0-16.57,0-33.15a4.62,4.62,0,0,1,6.6-4.09c1.83.91,3.59,2,5.38,3l23.42,13.37A4.83,4.83,0,0,1,236,46.6a4.4,4.4,0,0,1-1.93,4.62c-1.72,1.16-3.58,2.1-5.37,3.13L205.4,67.67a7.34,7.34,0,0,1-2,.82Zm-1-21.11V63.32c0,.23,0,.47,0,.7a1.64,1.64,0,0,0,.89,1.39c.49.28.62.24,1-.22q6.22-8.65,12.45-17.32a.67.67,0,0,0,0-.93q-6.21-8.61-12.4-17.25c-.4-.55-.58-.59-1.14-.2a1.89,1.89,0,0,0-.77,1.75Zm32.29,0a1.87,1.87,0,0,0-1.16-1.7q-4-2.25-7.93-4.53c-.26-.16-.41-.15-.6.11-1.37,1.93-2.74,3.84-4.13,5.75a.56.56,0,0,0,0,.79c1.38,1.89,2.75,3.8,4.11,5.71.2.28.35.29.63.12l3.79-2.17,4.18-2.38A1.84,1.84,0,0,0,233.17,47.39Zm-25-15.3a.6.6,0,0,0,.18.4l8.68,12.11c.23.32.32.21.49,0,1.11-1.57,2.22-3.13,3.36-4.68.24-.33.18-.45-.15-.64-3.19-1.81-6.36-3.63-9.54-5.45Zm0,30.6a1.35,1.35,0,0,0,.19-.08l12.48-7.12c.28-.16.24-.29.08-.51-1.14-1.58-2.28-3.16-3.4-4.75-.21-.3-.31-.26-.51,0l-8.64,12A.64.64,0,0,0,208.2,62.69Z" transform="translate(0 -15.71)"/></svg>