<svg xmlns="http://www.w3.org/2000/svg" xmlns:xlink="http://www.w3.org/1999/xlink" viewBox="0 0 3897.91 2608.84"><defs><style>.cls-1,.cls-20{fill:none;}.cls-2{fill:#fcf7d6;}.cls-3{fill:#fff9c0;}.cls-4{fill:#8cc63f;}.cls-5{fill:#22b573;}.cls-6{fill:#dd1221;}.cls-7{fill:#ed1c24;}.cls-8{fill:#f25b29;}.cls-9{fill:#e2451b;}.cls-10{fill:#ffd1ab;}.cls-11{fill:#f4bf98;}.cls-12{fill:#31241c;}.cls-13{fill:#1a191f;}.cls-14{fill:#15aa63;}.cls-15{fill:#1f0e03;}.cls-16{fill:#561f01;}.cls-17{fill:#d9e021;}.cls-18{fill:#5f7e91;}.cls-19{fill:#49687a;}.cls-20{stroke:#1f0e03;stroke-miterlimit:10;}.cls-21{fill:#f5cdb3;}.cls-22,.cls-24,.cls-30{fill:#c97440;}.cls-23{fill:#ffbc45;}.cls-24{font-size:96.94px;}.cls-24,.cls-30{font-family:AFuturaRoundBold, a_FuturaRound;}.cls-25{letter-spacing:-0.02em;}.cls-26{fill:#fff2db;}.cls-27{fill:#ffdaa9;}.cls-28{fill:#f9c280;}.cls-29{fill:#42210b;}.cls-30{font-size:121.31px;}.cls-31{fill:#f7931e;}.cls-32{clip-path:url(#clip-path);}.cls-33{fill:#79ba48;}.cls-34{fill:#1b5768;}.cls-35{fill:#008e59;}.cls-36{fill:#ea5613;}.cls-37{fill:#00b0b7;}.cls-38{fill:#fcc445;}</style><clipPath id="clip-path" transform="translate(900.62 1338.18)"><path class="cls-1" d="M696.47-1330.32C36.05-1371.76-198.21-1046-533.86-709.11S-1024.66-16.58-829.61,489.65s655.57,635,1378.38,635,1467.17,70.52,1844.15-204.83S2898.31,15.19,2352.12-314C2030.42-508,1609.42-1273,696.47-1330.32Z"/></clipPath></defs><g id="objects"><path class="cls-2" d="M713.6-1334.6C53.18-1376-181.08-1050.31-516.73-713.4S-1007.54-20.87-812.49,485.37s655.58,635,1378.38,635S2033.07,1190.85,2410,915.5s505.4-904.59-40.8-1233.83C2047.55-512.26,1626.55-1277.32,713.6-1334.6Z" transform="translate(900.62 1338.18)"/><path class="cls-3" d="M-662.59-548.29S-787.4,225.44,445.68,439.51,2595-40,2595-40s351.08,398.18-34.26,809.21S1597.42,1128.84,1160.7,1137.4-260.77,1197.35-629,794.88-890.64-69-872.24-156.53C-827-371.69-662.59-548.29-662.59-548.29Z" transform="translate(900.62 1338.18)"/><path class="cls-1" d="M713.6-1334.6C53.18-1376-181.08-1050.31-516.73-713.4S-1007.54-20.87-812.49,485.37s655.58,635,1378.38,635S2033.07,1190.85,2410,915.5s505.4-904.59-40.79-1233.83C2047.55-512.26,1626.55-1277.32,713.6-1334.6Z" transform="translate(900.62 1338.18)"/><path class="cls-4" d="M966-119.33a58.43,58.43,0,0,1-58.43,58.45h0a58.44,58.44,0,0,1-58.44-58.45v-40.55a58.43,58.43,0,0,1,58.44-58.43h0A58.42,58.42,0,0,1,966-159.88Z" transform="translate(900.62 1338.18)"/><path class="cls-5" d="M1182.12,774.83,1413,776.32l1.79-21.46c216.46-12.52,162.81-157.43,146.69-236.14-8.28-40.49-30.77-116.48-73.78-191.21m0,0c-40.6-70.54-99.5-139.95-182-177.31-170-76.93-329.18-14.31-388.2,21.46S790.41,347,760,477.57,625.82,606.38,545.32,635l37.57,136,599.23,3.87M712.59,727.14c33.09,0,180.68-110.92,211.09-107.35,15.2,81.4,17,124.33,18.79,129.71S721.53,794.21,712.59,727.14Z" transform="translate(900.62 1338.18)"/><path class="cls-6" d="M1139.29,781.87c20.21-.61,34-1.36,34-1.36-16.7-108.53-50.09-409.08,19.07-580.81-14.67.25-31.43.82-48.73,1.57" transform="translate(900.62 1338.18)"/><path class="cls-7" d="M1143.58,201.27c-64.3,2.78-136.12,8-136.12,8-10.73,51.28-54.86,365,20.29,571.27,35.22,2.87,80.85,2.28,111.54,1.36" transform="translate(900.62 1338.18)"/><path class="cls-7" d="M1045.62,116.21c-59,3.59-72.75,67.39-45.91,106.74s77.51,7.15,86.46-12.52c63.81,60.22,146.7,6,164.58-83.48C1250.75,119.8,1149.39,100.12,1045.62,116.21Z" transform="translate(900.62 1338.18)"/><path class="cls-4" d="M1213.79-207.13c-2.69-59.53-63.81-173.12-208.71-166.7C901.92-365.9,889.39-268.18,889.39-268.18c-3.58,11-22.06,34.18-22.06,34.18-5.36-45.79,23.59-167.12,153.85-170.37,146.69-3.66,216.74,111.14,219.45,193.58C1229-191.55,1213.79-207.13,1213.79-207.13Z" transform="translate(900.62 1338.18)"/><path class="cls-8" d="M1019.34-186C994.48-261.37,962.86-322.31,926-319.76c-49.55,33.94-79.22,90.43-54.11,146.6s32.23,81,7.88,124.9c-6.61,11.93-12.48,23.7-17.47,35.31" transform="translate(900.62 1338.18)"/><path class="cls-9" d="M862.3-12.95c-20.87,48.6-48.14,57.58-5.46,136.75s223.77-38.94,223.77-38.94-22.36-153-61.27-270.9" transform="translate(900.62 1338.18)"/><path class="cls-10" d="M1156.67-36.84S1195.1,79,1198.74,127.9c3.31,44.86-145.14,74.8-155.68,27.77-11-56-27.29-151.09-27.29-151.09" transform="translate(900.62 1338.18)"/><path class="cls-11" d="M1169,11.52l-12.34-48.36L1015.77,4.58s5,29.23,11.45,65.86a139,139,0,0,0,32.41,2.44A139.27,139.27,0,0,0,1169,11.52Z" transform="translate(900.62 1338.18)"/><path class="cls-10" d="M910.37-93.1A139.74,139.74,0,0,0,1056.2,40.28h0a139.76,139.76,0,0,0,133.39-145.86L1183-253.22a139.74,139.74,0,0,0-145.85-133.37h0A139.73,139.73,0,0,0,903.77-240.75Z" transform="translate(900.62 1338.18)"/><path class="cls-9" d="M1094.79-246c-17.63-9.47-40.8-13.87-59.24-4.35-6.89,3.55-.81,13.94,6.08,10.39,14.36-7.42,33.49-2.95,47.08,4.35,6.84,3.67,12.92-6.72,6.08-10.39Z" transform="translate(900.62 1338.18)"/><path class="cls-9" d="M926.28-226.48c8.33-7.89,20.27-10.77,31.38-8.49,7.58,1.55,10.8-10.05,3.2-11.61-15.43-3.16-31.52.62-43.09,11.59-5.64,5.35,2.88,13.84,8.51,8.51Z" transform="translate(900.62 1338.18)"/><path class="cls-12" d="M1019.64-80.21A36,36,0,0,1,999.47-86a4.54,4.54,0,0,1-1.19-6.32,4.57,4.57,0,0,1,6.32-1.2c7.72,5.29,20.71,5.54,29.57.61,5.34-3,11.58-9.11,11-21.41a4.54,4.54,0,0,1,4.34-4.75,4.56,4.56,0,0,1,4.75,4.33c.6,13.23-5,23.8-15.68,29.77A39.24,39.24,0,0,1,1019.64-80.21Z" transform="translate(900.62 1338.18)"/><path class="cls-13" d="M1040.12-169.15a17,17,0,0,0,21.9,9.88,17,17,0,0,0,9.87-21.88,17,17,0,0,0-21.88-9.91A17,17,0,0,0,1040.12-169.15Z" transform="translate(900.62 1338.18)"/><path class="cls-13" d="M938.55-163.07a17,17,0,0,0,21.9,9.89,17,17,0,0,0,9.9-21.91,17,17,0,0,0-21.89-9.86A17,17,0,0,0,938.55-163.07Z" transform="translate(900.62 1338.18)"/><path class="cls-13" d="M942.94-167.08a4,4,0,0,1-2.08-.59l-16.57-10.15a4,4,0,0,1-1.32-5.5,4,4,0,0,1,5.5-1.31L945-174.48a4,4,0,0,1,1.32,5.49A4,4,0,0,1,942.94-167.08Z" transform="translate(900.62 1338.18)"/><path class="cls-13" d="M1063.29-173a4,4,0,0,1-3.29-1.72,4,4,0,0,1,1-5.56l17.33-12a4,4,0,0,1,5.55,1,4,4,0,0,1-1,5.56l-17.33,12A4,4,0,0,1,1063.29-173Z" transform="translate(900.62 1338.18)"/><path class="cls-9" d="M1155.36,101.16c241.89,86.81,166.07-16.3,246.13-29.86,0-135.06-55.84-113.57-79-163.51s5.43-80.95-6.9-128.53c-.34-1.28-.71-2.53-1.11-3.73" transform="translate(900.62 1338.18)"/><path class="cls-8" d="M1314.48-224.47c-12.75-37.86-60-38.41-84.79-95.54C1190.54-410.4,989.13-491.78,914-308.36c83.49-56.61,169.07-27.18,201.55,14.67,65.5,84.4-1.71,120.15,23.57,170.34,18.42,36.56,30.5,61.2,6.69,116.54s9.53,108,9.53,108" transform="translate(900.62 1338.18)"/><path class="cls-10" d="M968.1,599.22c-68,6-94.2,26.24-155,58.45S739.12,697,753.43,703c-35.77,2.38-14.91,21.45,10.14,13.1-16.69,7.16,6.56,14.92,39.95,2.39,8.35,13.12,51.29,7.18,78.72-8.34s93-28.63,152.65-8.35c7.17-37-15.5-101.37-15.5-101.37Z" transform="translate(900.62 1338.18)"/><path class="cls-14" d="M1011.33,600.12c36.67-8,139.25-16.41,200.08-12.82,3.57,47.7-22.67,144.3-22.67,144.3l-162.2-35.79S1034.61,644.84,1011.33,600.12Z" transform="translate(900.62 1338.18)"/><path class="cls-15" d="M1008.26,601c72.43-10.46,145.67-10.26,218.65-12.32,35.16-1,68.89-5.07,103.73-9.06,33.11-3.79,72.33,3.4,104.17,13,3.76,1.13,5.34-4.72,1.61-5.86-29.39-8.89-63.8-14.73-94.58-14.07-15.25.33-30.54,3.45-45.58,5.7-20.94,3.12-42.27,3.32-63.38,4-75.55,2.45-151.24,1.89-226.23,12.72-3.86.56-2.21,6.4,1.61,5.85Z" transform="translate(900.62 1338.18)"/><path class="cls-15" d="M1331.31,415.17A1139.42,1139.42,0,0,1,1341.94,567c0,3.91,6.08,3.91,6.07,0a1152.12,1152.12,0,0,0-10.85-153.47c-.53-3.86-6.37-2.21-5.85,1.62Z" transform="translate(900.62 1338.18)"/><path class="cls-15" d="M1021.77,698.85c21.93-.26,42.24,9.46,63,15.1,24.72,6.71,48.92,15.11,73.62,21.88A745.81,745.81,0,0,0,1312,761.2c82.25,4.76,181.76.72,243.86-60.85,2.78-2.75-1.51-7-4.29-4.29C1486.64,760.42,1380,760.5,1294.78,754c-50.94-3.9-102-14.29-151-28.62-22-6.44-44-13.17-66-19.73-18.5-5.53-36.42-13.1-56-12.86-3.91.05-3.92,6.11,0,6.07Z" transform="translate(900.62 1338.18)"/><path class="cls-15" d="M900.78,352.74c-5.43,16.28-3.81,33.78-3.57,50.68.33,23.27,2,46.49,3.25,69.7,1.2,22.94,1.89,45.89,3.73,68.78,1.7,21.14,9.69,41.17,10.79,62.1.21,3.89,6.27,3.91,6.07,0-1-19.14-8.35-37.25-10.28-56.39-2.12-20.94-2.78-42-3.71-63.06-.94-21.2-2.39-42.37-3.27-63.57s-4-46.22,2.83-66.62c1.24-3.72-4.62-5.31-5.84-1.62Z" transform="translate(900.62 1338.18)"/><path class="cls-16" d="M992.61,145.21c-9.52,33.58-16.22,76.43,21.43,95.3,13.58,6.81,29,3.44,42.14-2.5,9.2-4.17,17.22-11.21,24.83-17.73s11.06,3.41,17.86,8.27c55.32,39.56,128.14-15.22,146.46-69.8,1.25-3.72-4.61-5.3-5.85-1.61-19.55,58.24-103.08,111.73-151.17,52.34-1.08-1.34-3.16-1-4.29,0-19.94,17.93-45.87,39.16-73.07,22.36-29.66-18.31-20.17-58-12.49-85,1.07-3.77-4.79-5.36-5.85-1.61Z" transform="translate(900.62 1338.18)"/><path class="cls-15" d="M800.76,723.81c19.11-3.4,34.43-15.36,50.51-25.44,22.18-13.91,47.08-21.9,71.13-31.82,3.56-1.47,2-7.34-1.61-5.85-19.86,8.19-40.18,15.11-59.37,24.85-20.85,10.58-38.64,28.21-62.27,32.41-3.85.68-2.22,6.52,1.61,5.85Z" transform="translate(900.62 1338.18)"/><path class="cls-15" d="M757.36,723.5c48.3-20.4,92.79-49.06,142.37-66.49,3.67-1.29,2.09-7.15-1.61-5.85-50.09,17.61-95,46.5-143.83,67.1-3.59,1.52-.49,6.74,3.07,5.24Z" transform="translate(900.62 1338.18)"/><path class="cls-15" d="M746.61,709.18c19.08-11.58,40.85-17,60.46-27.38,19.42-10.31,38.72-20.88,58.81-29.86,3.57-1.59.48-6.82-3.06-5.24-20.09,9-39.41,19.53-58.81,29.87C784.4,687,762.65,692.35,743.55,704c-3.34,2-.29,7.27,3.06,5.23Z" transform="translate(900.62 1338.18)"/><path class="cls-16" d="M1061.18,261c2,10.77,17.27,10.39,22.2,2.07,2.73-4.62-.24-10.07-4.46-12.47-5.17-2.94-13-2.44-16.53,2.69-2.23,3.23,3,6.26,5.24,3.06,2.67-3.86,13.82.17,9.9,4.5-3,3.3-9.55,3.55-10.5-1.46-.73-3.84-6.58-2.21-5.85,1.61Z" transform="translate(900.62 1338.18)"/><path class="cls-16" d="M1053.14,305.91c-1.55,10.73,10.89,13.75,18.11,7.78,3.68-3,5.61-8.91,2.5-13.06-3.23-4.31-9.49-3.61-14-2.18-3.71,1.17-2.12,7,1.61,5.85,2.27-.72,5.22-1.57,7.42-.26,1.88,1.1-.64,4.49-1.65,5.23-2.21,1.61-8.78,2.81-8.12-1.74.55-3.83-5.29-5.48-5.85-1.62Z" transform="translate(900.62 1338.18)"/><path class="cls-16" d="M1049.45,364c.53,12.17,18.48,7.31,20.28-1.88,2.19-11.22-17.37-17.37-19.28-5.19-.6,3.83,5.25,5.47,5.85,1.61.74-4.68,7.43-1.47,7.51,2.17.07,2.86-8.14,6.76-8.3,3.29-.17-3.9-6.23-3.91-6.06,0Z" transform="translate(900.62 1338.18)"/><path class="cls-15" d="M931.38,695.81a61.41,61.41,0,0,0,3.69,27.65c1.43,3.59,7.3,2,5.85-1.61a57.33,57.33,0,0,1-3.48-26c.4-3.89-5.67-3.85-6.06,0Z" transform="translate(900.62 1338.18)"/><path class="cls-15" d="M1007.13,601.84c11.32,7.95,12.22,23.73,15.42,36,4.24,16.25,7.38,36.41.19,52.28-1.6,3.53,3.63,6.61,5.24,3,8.12-17.9,4.73-38.42.42-56.95-3.35-14.36-5.33-30.58-18.21-39.63-3.21-2.25-6.23,3-3.06,5.24Z" transform="translate(900.62 1338.18)"/><path class="cls-15" d="M860.82-84.35c-9.53,70.74,95,71,140.09,68.82,3.89-.18,3.91-6.25,0-6.06-39.82,1.89-143,3.8-134.24-61.15.51-3.82-5.33-5.47-5.85-1.61Z" transform="translate(900.62 1338.18)"/><path class="cls-17" d="M1036.09-19.44c0,10-10,18.18-22.36,18.18S991.38-9.4,991.38-19.44s10-18.21,22.35-18.21S1036.09-29.49,1036.09-19.44Z" transform="translate(900.62 1338.18)"/><path class="cls-17" d="M1021.18-404.37c-74.31,1.87-115.6,42.12-136.41,84.88a68.86,68.86,0,0,1,21.11,5.87c15.41-26.67,44.61-56,99.2-60.21,144.9-6.42,206,107.17,208.71,166.7,0,0,15.2,15.58,26.84-3.66C1237.92-293.23,1167.87-408,1021.18-404.37Z" transform="translate(900.62 1338.18)"/><path class="cls-17" d="M1229.3-60.88h0a58.44,58.44,0,0,1-58.45-58.45v-40.55a58.43,58.43,0,0,1,58.45-58.43h0a58.44,58.44,0,0,1,58.43,58.43" transform="translate(900.62 1338.18)"/><path class="cls-4" d="M1287.73-159.88v40.55a58.45,58.45,0,0,1-58.43,58.45" transform="translate(900.62 1338.18)"/><path class="cls-15" d="M1274-125.57c-2.13,39.45-55.07,48.49-69.6,11.45-4.33-11.06-1.86-26.71-1.86-38.35,0-40.37,55.51-47.33,69.59-11.44,4.34,11,1.87,26.71,1.87,38.34,0,3.92,6.06,3.92,6.06,0,0-24.34,2.38-47.82-20.7-63-28-18.37-61.28,6.29-62.89,36.08-1.29,23.94-1.48,48.42,20.7,63,28,18.37,61.29-6.29,62.89-36.09C1280.25-129.48,1274.18-129.46,1274-125.57Z" transform="translate(900.62 1338.18)"/><path class="cls-18" d="M590,723.26h466.32c21.47,0,26.24,42.93-9.54,42.93H-23c-32.2-64.4-176.51-458-190.82-494.94s-1.19-79.91,57.25-79.91H253.73c42.93,0,90.64,7.14,120.45,72.75S590,723.26,590,723.26Z" transform="translate(900.62 1338.18)"/><path class="cls-19" d="M1057.84,764.49a27.27,27.27,0,0,0,3.85-1.72c.12-.06.23-.1.33-.16,18.31-10.26,12-39.35-5.66-39.35H590l-.36-.79c-.22-.45-.51-1.05-.91-1.9l-9.46-20c-40-84.67-179.64-380.38-205.13-436.44-29.81-65.61-77.52-72.75-120.45-72.75H215.56c42.94,0,90.64,7.14,120.46,72.75S551.88,723.26,551.88,723.26L568,765s20.1.48,52.19,1.16h426.64a38.56,38.56,0,0,0,6-.46,29.12,29.12,0,0,0,3.31-.81C1056.68,764.76,1057.3,764.67,1057.84,764.49Z" transform="translate(900.62 1338.18)"/><path class="cls-20" d="M202.44,484.75c11.77,29.11-2.18,52.7-31.15,52.7s-62-23.59-73.79-52.7S99.67,432,128.66,432,190.68,455.62,202.44,484.75Z" transform="translate(900.62 1338.18)"/><path class="cls-21" d="M1603.44,799.49H-78.84v266.68c184.67,39.32,433.58,67.72,678.69,70.82,335.56,4.24,683.51.43,1003.59-15.13Z" transform="translate(900.62 1338.18)"/><path class="cls-22" d="M1673.26,792.84a28.83,28.83,0,0,1-28.83,28.82H-119.85a28.82,28.82,0,0,1-28.81-28.82h0A28.82,28.82,0,0,1-119.85,764H1644.43a28.83,28.83,0,0,1,28.83,28.82Z" transform="translate(900.62 1338.18)"/><path class="cls-23" d="M-281.6-228.78c40,37.89,72.64,37.89,72.57,0s-.21-99.88-.29-137.76-32.8-68.89-72.72-68.89H-427.18c-39.92,0-39.85,31,.14,68.89Z" transform="translate(900.62 1338.18)"/><path class="cls-23" d="M672.2-595.45c0,128.58-104.23,232.81-232.81,232.81H-415.25c-128.58,0-232.81-104.23-232.81-232.81V-902.16c0-128.56,104.23-232.79,232.81-232.79H439.39c128.58,0,232.81,104.23,232.81,232.79Z" transform="translate(900.62 1338.18)"/><text class="cls-24" transform="translate(838.2 448.98)">ДОПОМ<tspan class="cls-25" x="380.96" y="0">О</tspan><tspan x="452.21" y="0">ЖIТЬ!</tspan></text><rect class="cls-26" x="851.96" y="506.36" width="596.06" height="38.76"/><rect class="cls-26" x="851.96" y="600.52" width="514.73" height="38.75"/><rect class="cls-26" x="851.96" y="694.69" width="341.42" height="38.75"/><rect class="cls-26" x="851.96" y="788.84" width="552.19" height="38.77"/><path class="cls-12" d="M-167-524.94c-17.76-44.1-79.21-75.62-110.61-75.2h-106c-34.86,3.28-92.85,31.1-110.61,75.2,41.52,41.11,99.47,66.66,163.63,66.66S-208.51-483.83-167-524.94Z" transform="translate(900.62 1338.18)"/><path class="cls-27" d="M-373.92-690.68s-10.16,83.43-17.17,130.6c-5.12,34.46,118.54,44.14,122.29,7,3.28-44,7.06-118.72,7.06-118.72" transform="translate(900.62 1338.18)"/><path class="cls-28" d="M-378.95-652.34l5-38.34,112.18,18.87s-1.17,22.94-2.74,51.71a107.74,107.74,0,0,1-24.69,4.88A108,108,0,0,1-378.95-652.34Z" transform="translate(900.62 1338.18)"/><path class="cls-27" d="M-189.67-756.65a108.27,108.27,0,0,1-99.88,116h0a108.28,108.28,0,0,1-116-99.91l-8.54-114.17a108.23,108.23,0,0,1,99.88-116h0a108.24,108.24,0,0,1,116,99.86Z" transform="translate(900.62 1338.18)"/><path class="cls-12" d="M-337.06-842.75c15.18-3.21,27.36-10,36.47-22.69,4.53-6.32-5.91-12.32-10.39-6.07-7.24,10.1-17.39,14.64-29.28,17.16-7.59,1.61-4.37,13.21,3.2,11.6Z" transform="translate(900.62 1338.18)"/><path class="cls-12" d="M-214.57-866.41c-8.5-1.6-13.72-5.63-17.89-13.18-3.75-6.79-14.14-.72-10.39,6.08,5.54,10,13.73,16.57,25.08,18.7,7.58,1.43,10.82-10.17,3.2-11.6Z" transform="translate(900.62 1338.18)"/><path class="cls-12" d="M-296.09-720.21a4.57,4.57,0,0,1-3.72-1.92,4.55,4.55,0,0,1,1.09-6.34c17.92-12.67,34-17.76,47.83-15.14a4.55,4.55,0,0,1,3.62,5.32,4.56,4.56,0,0,1-5.32,3.62c-11.29-2.14-25.06,2.44-40.88,13.63A4.52,4.52,0,0,1-296.09-720.21Z" transform="translate(900.62 1338.18)"/><path class="cls-13" d="M-296.48-803.18a13.16,13.16,0,0,1-15.93,9.62A13.15,13.15,0,0,1-322-809.49a13.14,13.14,0,0,1,15.92-9.62A13.16,13.16,0,0,1-296.48-803.18Z" transform="translate(900.62 1338.18)"/><path class="cls-13" d="M-217.8-807.87a13.16,13.16,0,0,1-15.93,9.62,13.17,13.17,0,0,1-9.63-15.93,13.14,13.14,0,0,1,15.93-9.6A13.14,13.14,0,0,1-217.8-807.87Z" transform="translate(900.62 1338.18)"/><path class="cls-27" d="M-384.82-769.18a39.29,39.29,0,0,1-28.92,47.47h0a39.29,39.29,0,0,1-47.48-28.91l-2.94-12.06a39.31,39.31,0,0,1,28.92-47.48h0a39.33,39.33,0,0,1,47.49,28.92Z" transform="translate(900.62 1338.18)"/><path class="cls-29" d="M-444.13-806.23c-9.23-26.32-54.27-133.38,12.71-136.62,4.15-42,62.59-64.2,135.57-78.52s118.48,19.87,112.94,54-50.36,46.65-85.92,36.48c-10.16,37-59.12,24.5-69.75,17.1-8.2,35.8-48.85,44.46-44.23,69.4s6.7,50.35,7.62,55.43-20.32,15-24.94,4.85S-423-812.46-444.13-806.23Z" transform="translate(900.62 1338.18)"/><path class="cls-15" d="M-242.38-221.63c44.29,8.79,18.91-141.48,18.62-164.14l-3,3q143,1.28,286,.27c68.15-.6,136.23-2.34,204.38-2.34,41.91,0,83.59-1.55,125.45-3.16,44.88-1.73,89.62-1.59,133.34-13.2C606-423.4,636.47-511.85,645.11-589.47c.43-3.88-5.64-3.84-6.07,0-6.41,57.61-23.87,120.74-70.22,159.12-34.91,28.91-86.35,32.58-129.67,34.68-43.14,2.09-86.46,3.92-129.65,4.54-136.61,2-273.33,3.29-410,3q-63.17-.15-126.33-.66a3.06,3.06,0,0,0-3,3c.25,19.11,20,164.43-10.94,158.29-3.81-.76-5.44,5.08-1.61,5.85Z" transform="translate(900.62 1338.18)"/><path class="cls-15" d="M642.27-849.08c.05,75.35,3.29,151.11-1.85,226.34-.26,3.91,5.81,3.88,6.07,0,5.13-75.23,1.9-151,1.85-226.34,0-3.91-6.07-3.91-6.07,0Z" transform="translate(900.62 1338.18)"/><path class="cls-23" d="M2997.29,135.15c0,133.3-108.06,241.36-241.36,241.36h-886c-133.3,0-241.37-108.06-241.37-241.36v-318c0-133.3,108.07-241.37,241.37-241.37h886c133.3,0,241.36,108.07,241.36,241.37Z" transform="translate(900.62 1338.18)"/><path class="cls-23" d="M1901.76,515.29c-41.47,39.27-75.33,39.27-75.25,0s.23-103.55.3-142.82,34-71.42,75.39-71.42h150.48c41.38,0,41.31,32.13-.15,71.42Z" transform="translate(900.62 1338.18)"/><text class="cls-30" transform="translate(2706.15 1181.01)">ДЯКУЮ!</text><rect class="cls-26" x="2689.79" y="1245.11" width="617.97" height="40.18"/><rect class="cls-26" x="2689.79" y="1342.72" width="533.65" height="40.2"/><rect class="cls-26" x="2689.79" y="1440.34" width="353.96" height="40.18"/><path class="cls-12" d="M2549,223.18c18.42-45.73,82.13-78.41,114.68-78h109.94c36.14,3.4,96.27,32.25,114.67,78-43,42.61-103.11,69.09-169.64,69.09S2592,265.79,2549,223.18Z" transform="translate(900.62 1338.18)"/><path class="cls-27" d="M2763.5,51.34s10.53,86.49,17.8,135.4c5.31,35.71-122.89,45.75-126.79,7.25-3.41-45.67-7.31-123.08-7.31-123.08" transform="translate(900.62 1338.18)"/><path class="cls-28" d="M2768.71,91.09l-5.21-39.75L2647.2,70.91s1.21,23.79,2.84,53.61a111.32,111.32,0,0,0,118.67-33.43Z" transform="translate(900.62 1338.18)"/><path class="cls-27" d="M2572.48-17A112.26,112.26,0,0,0,2676,103.25h0A112.25,112.25,0,0,0,2796.31-.32l8.86-118.37A112.21,112.21,0,0,0,2701.62-239h0a112.19,112.19,0,0,0-120.28,103.54Z" transform="translate(900.62 1338.18)"/><path class="cls-12" d="M2726.14-117.29c-6.1-11.72-19.62-19.85-33-18.29-7.62.88-7.7,12.93,0,12a22.52,22.52,0,0,1,22.59,12.34c3.58,6.89,14,.8,10.39-6.08Z" transform="translate(900.62 1338.18)"/><path class="cls-12" d="M2604.22-120.59c5.26-5.52,14.92-9.31,22.45-7.49s10.74-9.78,3.2-11.61c-11.66-2.82-25.89,1.93-34.15,10.58-5.36,5.62,3.14,14.14,8.5,8.52Z" transform="translate(900.62 1338.18)"/><path class="cls-12" d="M2652.7,35.16h0c-12.47,0-20.9-13.2-25.79-40.37a4.51,4.51,0,0,1,1.2-4,4.68,4.68,0,0,1,3.94-1.34,204.12,204.12,0,0,0,31.46,2.29c7.25,0,15.12-.29,24.07-.9A4.53,4.53,0,0,1,2691.76-7a4.56,4.56,0,0,1,0,4.7C2676.94,22.91,2664.15,35.16,2652.7,35.16ZM2637.09-.65c3.81,17.07,9.39,26.72,15.61,26.72,4,0,12.55-3.53,26.74-25.61C2663,1.26,2650.54,1,2637.09-.65Z" transform="translate(900.62 1338.18)"/><path class="cls-13" d="M2683.21-65.3a13.66,13.66,0,0,0,16.52,10,13.66,13.66,0,0,0,10-16.52,13.64,13.64,0,0,0-16.51-10A13.66,13.66,0,0,0,2683.21-65.3Z" transform="translate(900.62 1338.18)"/><path class="cls-13" d="M2601.64-70.15a13.66,13.66,0,0,0,16.52,10,13.67,13.67,0,0,0,10-16.52,13.64,13.64,0,0,0-16.51-10A13.64,13.64,0,0,0,2601.64-70.15Z" transform="translate(900.62 1338.18)"/><path class="cls-27" d="M2774.81-30a40.75,40.75,0,0,0,30,49.22h0a40.74,40.74,0,0,0,49.23-30l3-12.51a40.75,40.75,0,0,0-30-49.23h0a40.78,40.78,0,0,0-49.23,30Z" transform="translate(900.62 1338.18)"/><path class="cls-12" d="M2836.3-68.45c9.57-27.3,56.26-138.3-13.18-141.64-4.32-43.59-64.89-66.57-140.55-81.41s-122.84,20.59-117.1,56,52.21,48.35,89.07,37.83c10.54,38.31,61.3,25.37,72.32,17.72,8.5,37.11,50.64,46.09,45.86,71.95s-6.95,52.2-7.91,57.48,21.07,15.55,25.88,5S2814.38-74.92,2836.3-68.45Z" transform="translate(900.62 1338.18)"/><path class="cls-15" d="M2753.08,358.62c89.09-3.53,184.58-60.22,203.56-152.3.78-3.81-5.07-5.44-5.86-1.61-18.42,89.42-111.16,144.42-197.7,147.84-3.89.16-3.91,6.22,0,6.07Z" transform="translate(900.62 1338.18)"/><path class="cls-15" d="M2679.38,359.11c16.25.58,32.51.9,48.77,1.26,3.92.09,3.91-6,0-6.07-16.26-.36-32.52-.68-48.77-1.26-3.92-.14-3.9,5.93,0,6.07Z" transform="translate(900.62 1338.18)"/><path class="cls-15" d="M1900.39,493.08c30.54-27.48,61.2-54.82,89.91-84.24,13.28-13.61,25.14-31.38,41.18-42.15,9.49-6.38,21.27-7.41,32.37-8.05,21.86-1.26,43.85-.69,65.73-1,39.68-.54,79.3-2.66,119-2.58,42.52.08,85,2,127.48,3.94,82.71,3.77,165.64,7.68,248.2-.83,3.85-.39,3.89-6.47,0-6.06-84.47,8.7-169.31,4.42-253.93.56-44.48-2-89-3.76-133.52-3.68-39.73.07-79.43,2.3-119.17,2.73-27.09.3-64.82-5.7-89.22,9.72-15.11,9.56-26.46,26.35-38.47,39-29.57,31.18-61.92,59.61-93.84,88.32-2.92,2.62,1.39,6.9,4.29,4.29Z" transform="translate(900.62 1338.18)"/><path class="cls-17" d="M2497.37-734A126.35,126.35,0,0,1,2371-607.7H1194.7A126.34,126.34,0,0,1,1068.36-734v-117.6A126.35,126.35,0,0,1,1194.7-978H2371a126.36,126.36,0,0,1,126.34,126.35Z" transform="translate(900.62 1338.18)"/><path class="cls-31" d="M1264.91-889.56c4.42-9,11.67-9,16.1,0l14.14,28.66c4.42,9,16.15,17.49,26.06,18.93l31.63,4.6c9.9,1.44,12.14,8.33,5,15.32l-22.87,22.29c-7.17,7-11.65,20.77-10,30.64l5.41,31.49c1.69,9.86-4.18,14.13-13,9.47L1289.06-743c-8.85-4.65-23.36-4.65-32.21,0l-28.28,14.87c-8.86,4.66-14.72.39-13-9.47l5.4-31.49c1.7-9.87-2.78-23.65-10-30.64L1188.11-822c-7.16-7-4.92-13.88,5-15.32l31.62-4.61c9.9-1.44,21.63-10,26.06-18.94Z" transform="translate(900.62 1338.18)"/><path class="cls-31" d="M1517.64-889.56c4.43-9,11.68-9,16.11,0l14.13,28.66c4.43,9,16.15,17.49,26,18.93l31.63,4.6c9.9,1.44,12.14,8.33,5,15.32l-22.87,22.29c-7.16,7-11.64,20.77-10,30.64l5.4,31.49c1.7,9.86-4.17,14.13-13,9.47L1541.8-743c-8.85-4.66-23.35-4.66-32.21,0l-28.3,14.88c-8.85,4.66-14.72.39-13-9.47l5.4-31.49c1.69-9.87-2.79-23.65-10-30.64L1440.85-822c-7.17-7-4.93-13.88,5-15.32l31.63-4.61c9.9-1.44,21.63-10,26.06-18.94Z" transform="translate(900.62 1338.18)"/><path class="cls-31" d="M1770.37-889.56c4.43-9,11.68-9,16.11,0l14.13,28.66c4.43,9,16.16,17.49,26.06,18.93l31.63,4.6c9.9,1.44,12.14,8.33,5,15.32l-22.87,22.29c-7.17,7-11.64,20.77-10,30.64l5.41,31.49c1.69,9.86-4.17,14.13-13,9.47L1794.53-743c-8.85-4.66-23.36-4.66-32.21,0L1734-728.16c-8.85,4.66-14.72.39-13-9.47l5.4-31.49c1.69-9.87-2.79-23.65-10-30.64L1693.58-822c-7.16-7-4.92-13.88,5-15.33l31.6-4.59c9.91-1.45,21.63-10,26.06-18.95Z" transform="translate(900.62 1338.18)"/><path class="cls-31" d="M2023.11-889.56c4.43-9,11.68-9,16.1,0l14.14,28.66c4.42,9,16.15,17.49,26.05,18.93l31.63,4.6c9.9,1.44,12.14,8.33,5,15.32l-22.87,22.29c-7.17,7-11.65,20.77-10,30.64l5.4,31.49c1.69,9.86-4.17,14.13-13,9.47L2047.27-743c-8.86-4.66-23.36-4.66-32.21,0l-28.29,14.87c-8.86,4.66-14.72.39-13-9.47l5.4-31.49c1.69-9.86-2.79-23.65-10-30.64L1946.31-822c-7.17-7-4.93-13.88,5-15.32l31.62-4.61c9.9-1.44,21.63-10,26.06-18.94Z" transform="translate(900.62 1338.18)"/><path class="cls-31" d="M2275.83-889.56c4.43-9,11.68-9,16.11,0l14.14,28.66c4.43,9,16.16,17.49,26.07,18.93l31.62,4.6c9.91,1.44,12.14,8.33,5,15.32l-22.89,22.29c-7.17,7-11.65,20.77-10,30.64l5.4,31.49c1.69,9.86-4.17,14.13-13,9.47L2300-743c-8.86-4.65-23.35-4.65-32.21,0l-28.27,14.87c-8.86,4.66-14.72.39-13-9.47l5.41-31.49c1.69-9.87-2.79-23.65-10-30.64L2199.05-822c-7.17-7-4.93-13.88,5-15.33l31.61-4.59c9.91-1.45,21.63-10,26.06-18.95Z" transform="translate(900.62 1338.18)"/><path class="cls-15" d="M1700.55-626.26c20-.23,39.88-2,59.84-2.22,3.91,0,3.91-6.11,0-6.06-20,.23-39.88,2-59.84,2.21-3.91.05-3.91,6.11,0,6.07Z" transform="translate(900.62 1338.18)"/><path class="cls-15" d="M1788.17-628.47c71.32-1.61,142.64,1.57,214,.41,35.58-.58,70.88-3.9,106.38-5.65,37.32-1.83,74.72-1.2,112-.24,35.66.92,71.3,2.31,107,2.84,24.6.36,49.61,1.54,73.82-3.69,39.62-8.56,56.47-40.64,59.1-78.75.27-3.91-5.8-3.88-6.07,0-1.46,21.15-6.36,41.94-22.1,57.08-14.33,13.79-35.9,17.5-54.9,19-28.27,2.22-57.25.29-85.57-.44-33.61-.86-67.22-2.15-100.85-2.74-67.13-1.17-133.67,5.85-200.72,6.71-67.36.86-134.7-2.1-202.07-.59-3.9.09-3.91,6.16,0,6.07Z" transform="translate(900.62 1338.18)"/><path class="cls-29" d="M-262.75-792.13a35.09,35.09,0,0,1,3.69,2.31l.69.5.2.15.21.16c.53.43,1,.87,1.54,1.33a18.12,18.12,0,0,1,1.35,1.42c.11.12.21.27.33.39s-.39-.53-.17-.21l.11.15a8.67,8.67,0,0,1,.53.81c.14.25.24.54.4.77,0,0-.23-.63-.13-.28l.06.15c.05.16.1.32.14.48s.05.24.08.36-.05-.7,0-.19c0,.14,0,.28,0,.42a.86.86,0,0,1,0,.16c0,.41,0-.22,0-.3-.11.24-.13.54-.22.78-.15.42-.08.16.06-.1-.09.16-.15.33-.23.49a15.76,15.76,0,0,1-.94,1.71c-.17.26-.35.52-.53.77s-.23.29-.32.44l.18-.23-.22.27a19.91,19.91,0,0,1-1.52,1.67c-.55.54-1.12,1.06-1.72,1.55l-.32.26c.29-.23-.18.13-.27.2l-1.1.77c-.83.55-1.69,1.05-2.58,1.52-.46.24-.93.47-1.4.69l-.78.35c-.17.08-.27.22.07,0a1.94,1.94,0,0,1-.36.15,38.66,38.66,0,0,1-6.95,2,2.51,2.51,0,0,0-1.74,3.07,2.56,2.56,0,0,0,3.07,1.75c7.83-1.49,15.63-5.33,20.32-12,1.75-2.47,3.15-5.51,2-8.53s-3.65-5.37-6.21-7.33a34.32,34.32,0,0,0-4.84-3.15,2.54,2.54,0,0,0-3.42.89,2.54,2.54,0,0,0,.9,3.42Z" transform="translate(900.62 1338.18)"/><path class="cls-29" d="M999.8-154.9a51.6,51.6,0,0,0-5.86,3.7c-3.61,2.6-7.37,5.66-9.5,9.65a11.35,11.35,0,0,0-1.35,7.3,13.14,13.14,0,0,0,1.16,3.29,23.27,23.27,0,0,0,1.43,2.65,37.31,37.31,0,0,0,10.93,11,53,53,0,0,0,19.86,7.92,3.78,3.78,0,0,0,2.7-.35,3.61,3.61,0,0,0,1.61-2.1c.39-1.72-.53-3.94-2.45-4.3a56.26,56.26,0,0,1-9.44-2.63l-1.09-.43-.54-.22c1,.4.35.14.13,0-.68-.3-1.37-.62-2-1-1.23-.61-2.44-1.28-3.62-2s-2.27-1.48-3.35-2.3c-.5-.37.6.48.26.2a3.92,3.92,0,0,1-.32-.25c-.25-.2-.5-.4-.74-.61-.48-.4-1-.82-1.41-1.24a33.44,33.44,0,0,1-2.47-2.58l-.46-.54c-.2-.24-.85-1.13-.06-.06-.32-.44-.65-.87-.95-1.32a22.94,22.94,0,0,1-1.67-2.88c-.13-.25-.24-.51-.36-.77-.23-.5.37.91.17.4l-.13-.33a6.28,6.28,0,0,1-.4-1.47l.12.93a6.75,6.75,0,0,1,0-1.68l-.12.93a7.85,7.85,0,0,1,.22-1c.05-.17.11-.35.17-.52s.13-.31.12-.31-.45,1-.17.42a12.87,12.87,0,0,1,1.26-2.15,3.08,3.08,0,0,1,.37-.5s-.63.79-.32.41l.24-.29q.43-.53.9-1c.61-.65,1.26-1.28,1.93-1.88s1.39-1.18,2.11-1.75c-1.1.87.1-.07.4-.3s.72-.52,1.09-.77c1.12-.78,2.27-1.53,3.45-2.23.57-.34,1.14-.67,1.72-1a3.53,3.53,0,0,0,1.25-4.79,3.56,3.56,0,0,0-4.78-1.26Z" transform="translate(900.62 1338.18)"/><path class="cls-29" d="M2637-56.27a33.78,33.78,0,0,0-4,2.55c-2.44,1.77-5,3.84-6.41,6.56a7.75,7.75,0,0,0-.91,5,11.66,11.66,0,0,0,1.71,3.95,25.41,25.41,0,0,0,7.47,7.53,36,36,0,0,0,13.47,5.37,2.57,2.57,0,0,0,3.08-1.75,2.53,2.53,0,0,0-1.75-3.07,37.49,37.49,0,0,1-6.22-1.72l-.64-.24-.2-.08c-.47-.19-.92-.41-1.37-.63-.84-.4-1.67-.84-2.47-1.32s-1.44-.91-2.13-1.41c-.11-.08-.39-.22-.46-.35.14.24.34.27.12.1a2.43,2.43,0,0,0-.25-.2l-1-.82c-.56-.51-1.09-1-1.6-1.59-.24-.27-.47-.54-.7-.82-.1-.12-.2-.26-.31-.38.52.59,0,.06-.06-.09a16.94,16.94,0,0,1-1.08-1.71c-.14-.26-.28-.51-.4-.77l-.2-.44c-.14-.31.22.6,0,.05a7.15,7.15,0,0,1-.23-.79c0-.12,0,.7,0,.2a3.68,3.68,0,0,1,0-.47c0-.06,0-.11,0-.16,0-.36-.05.34-.05.35s.05-.29.08-.42.07-.25.11-.37a.75.75,0,0,0,.05-.16c.1-.31.23-.2-.08.18a6.06,6.06,0,0,0,.37-.72,7,7,0,0,1,.52-.81c.12-.18.5-.56,0,0,.1-.11.19-.23.28-.34.22-.27.46-.52.7-.77a18.38,18.38,0,0,1,1.43-1.36c.25-.21.5-.42.76-.62l.35-.29c.24-.19-.44.34-.2.16l.25-.19a36.82,36.82,0,0,1,4.44-2.85,2.52,2.52,0,0,0,.89-3.42,2.56,2.56,0,0,0-3.42-.89Z" transform="translate(900.62 1338.18)"/><g class="cls-32"><path class="cls-33" d="M-341.09,1006.79c-41.65-9.53-83.44-18.65-122.23-37.22A467.07,467.07,0,0,1-578.5,891.4c-13.46-12.59-48.28-40.74-46-61.91,9.91-2,19.62,2.12,29.14,4.51a338,338,0,0,1,66.72,24.52,678.64,678.64,0,0,1,127.87,82.24c26.52,21.6,47.43,43.6,59.73,66Z" transform="translate(900.62 1338.18)"/><path class="cls-33" d="M-381.79,988.13c-31.33-29.06-62.95-57.87-87.26-93.36C-495,857-516.33,813.47-529.72,769.46c-5.39-17.61-21.51-59.34-9-76.56,9.6,3.21,16,11.62,23,18.44a336.72,336.72,0,0,1,45.52,54.6,675,675,0,0,1,69.68,135.12c12.17,32,19.25,61.52,18.72,87.07Z" transform="translate(900.62 1338.18)"/><path class="cls-33" d="M-386.67,982.07c-9.18-41.77-18.77-83.44-18.57-126.42.24-45.87,7.47-93.81,21.49-137.57,5.62-17.54,16.14-61,36.23-68.05,6.09,8.06,6.51,18.61,8.4,28.26a334.61,334.61,0,0,1,6.32,70.78,676,676,0,0,1-19.67,150.78c-8.19,33.16-19.19,61.5-34.2,82.22Z" transform="translate(900.62 1338.18)"/><path class="cls-33" d="M-419,956.59c28.3,32,56.32,64.37,91.2,89.51A466.88,466.88,0,0,0-204,1109.79c17.5,5.8,58.84,22.92,76.36,10.79-3-9.65-11.23-16.2-17.89-23.44a332.3,332.3,0,0,0-53.5-46.79,675.63,675.63,0,0,0-133.38-72.94c-31.66-12.91-61-20.72-86.58-20.82Z" transform="translate(900.62 1338.18)"/><path class="cls-33" d="M-391.1,982.57c40.51,13.58,80.93,27.57,123.71,31.94,45.61,4.64,94,2.57,139-6.71,18-3.72,62.42-9.54,71.54-28.79-7.38-6.93-17.83-8.44-27.21-11.36a334.72,334.72,0,0,0-69.72-13.85,678.25,678.25,0,0,0-152,3.52c-33.88,4.63-63.21,12.54-85.39,25.25Z" transform="translate(900.62 1338.18)"/><path class="cls-33" d="M-383.44,984c41-11.91,82.21-23.42,119.86-44.19,40.15-22.17,78.77-51.46,110.48-84.76,12.71-13.31,45.86-43.39,42.41-64.35-10-1.5-19.48,3.21-28.84,6.15a332.08,332.08,0,0,0-65.18,28.32,679.49,679.49,0,0,0-122.93,89.43c-25.22,23.13-44.82,46.35-55.8,69.4Z" transform="translate(900.62 1338.18)"/><path class="cls-33" d="M-378.23,977.49c31.16-29.21,62.63-58.19,86.75-93.78,25.73-38,46.84-81.61,60-125.65,5.28-17.66,21.18-59.48,8.58-76.66-9.6,3.26-15.91,11.74-22.91,18.61A334.07,334.07,0,0,0-291,754.86,676.23,676.23,0,0,0-360,890.3c-12,32.05-18.91,61.62-18.25,87.19Z" transform="translate(900.62 1338.18)"/><path class="cls-34" d="M-439.33,1085.87a4.17,4.17,0,0,1-1.75-.81,4.59,4.59,0,0,1-.87-6.44c30.07-39.52,68.46-92.64,98.48-152.87,9.09-18.21,17.6-37.14,25.81-55.44,9.48-21.1,19.28-42.94,30.07-63.92,4.81-9.37,9.43-18.77,14.06-28.23,5.66-11.55,11.51-23.44,17.62-35l1.16-2.2c2.63-4.95,5.35-10,6.36-15a4.59,4.59,0,0,1,5.41-3.59,4.84,4.84,0,0,1,3.58,5.39c-1.28,6.3-4.45,12.26-7.25,17.49l-1.14,2.14c-6.05,11.48-11.88,23.37-17.52,34.87-4.64,9.46-9.3,19-14.12,28.34-10.69,20.81-20.44,42.48-29.86,63.46-8.26,18.42-16.8,37.41-26,55.79-30.37,61-69.08,114.52-99.4,154.36a4.65,4.65,0,0,1-4.67,1.69Z" transform="translate(900.62 1338.18)"/><path class="cls-34" d="M-368.39,981.6a4.68,4.68,0,0,1-3.44-3.39c-3.56-14.88-4.55-30.28-5.51-45.18-.44-6.86-.88-13.66-1.57-20.44-4.42-43.87-6-108.13,11.43-164.9a4.58,4.58,0,0,1,5.73-3,4.59,4.59,0,0,1,3,5.72c-17,55.31-15.39,118.21-11.06,161.27.68,6.9,1.14,13.82,1.59,20.75.93,14.52,1.9,29.55,5.28,43.65a4.55,4.55,0,0,1-3.39,5.5,4.92,4.92,0,0,1-2.09.05Z" transform="translate(900.62 1338.18)"/><path class="cls-34" d="M-370.25,982.75a3.21,3.21,0,0,1-1.17-.46c-13.61-7.38-25.44-22.39-34.94-34.52l-1.85-2.3c-23.39-29.66-42-62.78-59.92-94.85-5.05-9-10.1-18-15.25-26.9a4.62,4.62,0,0,1,1.68-6.3,4.58,4.58,0,0,1,6.26,1.69c5.17,9,10.24,18,15.3,27C-442.35,877.88-424,910.71-401,939.8l1.86,2.31c9,11.47,20.14,25.69,32.1,32.15a4.57,4.57,0,0,1,1.84,6.19,4.55,4.55,0,0,1-5,2.3Z" transform="translate(900.62 1338.18)"/><path class="cls-34" d="M-373,984.52a8.51,8.51,0,0,1-1.24-.47,373.59,373.59,0,0,0-39.52-19.13c-30.64-12.85-57.43-28.76-85.81-45.58-8.69-5.2-17.44-10.35-26.35-15.53a4.55,4.55,0,0,1-1.69-6.22,4.6,4.6,0,0,1,6.26-1.71c8.94,5.19,17.73,10.4,26.46,15.55,28.09,16.7,54.62,32.45,84.68,45a390.94,390.94,0,0,1,40.48,19.61,4.58,4.58,0,0,1,1.74,6.23,4.58,4.58,0,0,1-5,2.24Z" transform="translate(900.62 1338.18)"/><path class="cls-34" d="M-372.81,987a5.6,5.6,0,0,1-1.84-.89,4.61,4.61,0,0,1-.72-6.47c10.14-12.72,25.71-22.37,39.46-30.87,3.22-2,6.39-4,9.38-5.89,44.43-28.73,88.06-59.52,133.36-94.14a4.62,4.62,0,0,1,6.41.91,4.53,4.53,0,0,1-.85,6.38c-45.49,34.77-89.29,65.65-133.94,94.53-3,2-6.26,4-9.54,6-13.1,8.12-28,17.34-37.12,28.82a4.56,4.56,0,0,1-4.6,1.64Z" transform="translate(900.62 1338.18)"/><path class="cls-34" d="M-366.7,981.17a4.6,4.6,0,0,1-3.45-5.49,4.6,4.6,0,0,1,5.47-3.46c12.77,2.86,25.38,4.14,40.4,5.24,36.51,2.57,73.8,3.61,109.84,4.67l33.15,1a4.6,4.6,0,0,1,4.43,4.74,4.61,4.61,0,0,1-4.73,4.45q-16.54-.57-33.1-1c-36.16-1-73.53-2.08-110.24-4.68-15.42-1.11-28.44-2.41-41.75-5.42Z" transform="translate(900.62 1338.18)"/><path class="cls-34" d="M-210,1084.86a4.77,4.77,0,0,1-.9-.35c-32.55-15-63.28-35.67-93-55.62-5.94-4-11.85-7.93-17.75-11.83s-12.51-7.73-18.87-11.4c-10.4-5.95-21.16-12.13-30.17-19.49a4.62,4.62,0,0,1-.65-6.46,4.58,4.58,0,0,1,6.46-.69c8.42,6.94,18.85,13,28.93,18.71,6.48,3.75,13.19,7.61,19.37,11.68q8.87,5.85,17.78,11.89c29.44,19.72,59.86,40.17,91.75,54.91a4.6,4.6,0,0,1,2.24,6.07,4.68,4.68,0,0,1-5.19,2.58Z" transform="translate(900.62 1338.18)"/><path class="cls-35" d="M-601.1,644.18c1.46-4.44.3-8.77-.61-13.34-4.85-25.18-17.4-49.83-32.45-70.34-14.74-20.18-37.3-43.92-64.23-45.36-17.23-.92-32.57,7.34-32.45,25.82.18,33.91,38.15,54.17,64.35,66.93,25.3,12.34,53.44,22.58,65.39,36.29Z" transform="translate(900.62 1338.18)"/><path class="cls-35" d="M-597.34,637.16c-1.39-6.5,2.06-13.6,3.94-19.57,7.59-24.13,18.93-49.3,35.49-68.57,15.22-17.72,39.54-34.57,64-27.25,24,7.15,32.87,27.8,23,49.61-16.62,36.53-60.41,45.88-95,56.3-9.1,2.75-17,5-24,11.49-2.06,1.93-2.43,4.06-7.4-2Z" transform="translate(900.62 1338.18)"/><path class="cls-35" d="M-606.13,523.64a208.8,208.8,0,0,1,16.55-68.19c8.68-20.18,22.14-47.08,46.22-51.07,18.57-3.07,50.17,9.25,52.41,30.84,1.7,16.94-22.75,30.82-34.57,37-17.17,9-36.15,15-52.59,25.42-13,8.22-24.08,18.45-28,25.95Z" transform="translate(900.62 1338.18)"/><path class="cls-35" d="M-624.94,402.16c3.58-17.9-1.15-37,2.07-55.35,6.3-35.9,41.85-72.58,74.72-36.25,25.72,28.44-14,50.79-35.66,63.35C-601.22,384-610.2,394-624.94,402.16Z" transform="translate(900.62 1338.18)"/><path class="cls-35" d="M-624.27,398.61c3.28-13.86-15-33.8-23.05-43.28-16.44-19.41-40.94-37.28-66.78-39.88-15.47-1.55-37.79,2-41.06,20.62-6.19,34.61,51.92,33.59,71.93,36.76,13.23,2.1,72.55,9.45,59,25.78Z" transform="translate(900.62 1338.18)"/><path class="cls-35" d="M-651.08,298.06c10.86-5.89,22.75-11.8,33.24-18.53,19.29-12.4,39.61-29.27,47.07-51.85,5.34-16.13,4.61-42.07-14.13-49.16-34.46-13-62.05,41.62-67.76,66.88-2.42,10.7-8.43,42.59,1.58,52.66Z" transform="translate(900.62 1338.18)"/><path class="cls-35" d="M-653.26,293.66a190.44,190.44,0,0,0-39-38.11c-17.53-12.82-105.54-58.29-108.82-9-2.43,36.82,48.16,54,76.49,56.82,14.86,1.49,32.14,1.72,46.52-3.23,10.07-3.47,18.32-10.15,24.81-6.44Z" transform="translate(900.62 1338.18)"/><path class="cls-35" d="M-690.44,197.9c32.14-12.44,94.62-105.43,34.63-114.73-60.72-9.43-45.55,82.25-34.63,114.73Z" transform="translate(900.62 1338.18)"/><path class="cls-35" d="M-689.6,195.12c-4.67-15.24-25.53-25.67-37.91-33.42-17.22-10.8-76.24-38.74-89.22-8.14-11.22,26.35,41.67,39.22,57.32,42.67,15.16,3.33,30.57,5.38,46,3.31,11.52-1.53,22.08-6.79,23.77-4.42Z" transform="translate(900.62 1338.18)"/><path class="cls-35" d="M-738.06,112c15.47-9.62,28.39-24.55,37.73-40,7.4-12.26,13.65-27.05,9.46-41.35-3.64-12.36-17-22.39-30.33-20.48-23.71,3.41-29.11,35.42-27.23,54.28,1.88,19.17,5.15,35.07,10.37,47.6Z" transform="translate(900.62 1338.18)"/><path class="cls-35" d="M-737.21,109.25c-3.7-13.84-20.38-29.32-31.24-37.68-15.4-11.84-35.18-18.48-54.59-16.39-12.37,1.35-24.87,8.28-22.32,22.41,8.68,47.29,82.55,60.26,108.15,31.66Z" transform="translate(900.62 1338.18)"/><path class="cls-35" d="M-608.86,511.82c8.37-12.87-7.4-34.71-14-44.13-12.14-17.26-29.67-33.47-50-40.17-12.13-4-32.2-5.12-40.69,7.28-15,22,15.28,51.12,30.87,61.17,12.61,8.12,25.9,13.79,40.88,15.34,10.92,1.12,21.72-1.3,33,.51Z" transform="translate(900.62 1338.18)"/><path class="cls-35" d="M-767.6,50.17c-2.61-6.22,2.49-13.59,4.55-19.4,11.89-33.45,10.5-79-25-98.19-33-17.84-54.16,14.68-48.16,46.1,6.31,33.42,41.37,62.65,68.6,71.49Z" transform="translate(900.62 1338.18)"/><path class="cls-34" d="M-603.22,810.26a3.39,3.39,0,0,0,2.36-3c16.68-215.59-2.85-390.63-61.62-550.86-23-62.8-68-152.51-133.63-266.65a3.38,3.38,0,0,0-4.61-1.24,3.39,3.39,0,0,0-1.21,4.58C-736.48,107-691.66,196.31-668.79,258.75c58.41,159.3,77.88,333.44,61.26,548a3.32,3.32,0,0,0,3.09,3.6,3.25,3.25,0,0,0,1.22-.13Z" transform="translate(900.62 1338.18)"/><path class="cls-34" d="M-627.06,388.11a2.77,2.77,0,0,0,.79-.31,3.33,3.33,0,0,0,1.15-4.59c-3.46-5.95-9.16-10.3-14.19-13.91-21.66-15.41-44.7-20.95-66.42-24.64a3.36,3.36,0,0,0-3.88,2.74,3.37,3.37,0,0,0,2.73,3.88c20.92,3.56,43.12,8.87,63.69,23.49,4.48,3.2,9.52,7,12.31,11.82a3.32,3.32,0,0,0,3.82,1.52Z" transform="translate(900.62 1338.18)"/><path class="cls-34" d="M-605.77,515.51a3.36,3.36,0,0,0,2.24-4.19c-7.4-24.71-39.73-41.95-61.14-53.36l-3.27-1.76a3.35,3.35,0,0,0-4.55,1.37,3.36,3.36,0,0,0,1.33,4.54l3.34,1.78c20.44,10.88,51.25,27.33,57.86,49.36a3.39,3.39,0,0,0,4.19,2.26Z" transform="translate(900.62 1338.18)"/><path class="cls-34" d="M-597.7,644.15a3.19,3.19,0,0,0,.54-.24,3.38,3.38,0,0,0,1.46-4.53c-14.92-28.64-40.52-47.25-65.21-65.24l-4.12-3a3.39,3.39,0,0,0-4.73.73,3.39,3.39,0,0,0,.73,4.69l4.18,3c25.17,18.35,49,35.67,63.2,62.91a3.37,3.37,0,0,0,3.95,1.67Z" transform="translate(900.62 1338.18)"/><path class="cls-34" d="M-595.09,646.08a3.19,3.19,0,0,0,1.87-1.5c19.11-31.79,49.32-58.46,78.86-69.6a3.32,3.32,0,0,0,1.94-4.33,3.32,3.32,0,0,0-4.31-2c-30.93,11.65-62.41,39.41-82.25,72.44a3.41,3.41,0,0,0,1.16,4.61,3.41,3.41,0,0,0,2.73.34Z" transform="translate(900.62 1338.18)"/><path class="cls-34" d="M-602.8,518.68a3.15,3.15,0,0,0,1.58-1,104.28,104.28,0,0,0,8.13-11.23,106.33,106.33,0,0,1,6.79-9.52A180.49,180.49,0,0,1-531.35,451a3.33,3.33,0,0,0,1.28-4.57,3.33,3.33,0,0,0-4.55-1.31,186.38,186.38,0,0,0-56.9,47.54,113.36,113.36,0,0,0-7.15,10.08,92.54,92.54,0,0,1-7.65,10.53,3.36,3.36,0,0,0,.37,4.73,3.35,3.35,0,0,0,3.15.68Z" transform="translate(900.62 1338.18)"/><path class="cls-34" d="M-622.87,399.77a3.67,3.67,0,0,0,1.88-1.38c3.88-5.89,7.33-11.83,10.67-17.58,9.71-16.65,18.86-32.37,36.15-44a3.38,3.38,0,0,0,.91-4.66,3.36,3.36,0,0,0-4.67-.91c-18.56,12.51-28.08,28.88-38.21,46.21-3.28,5.67-6.73,11.53-10.5,17.27a3.38,3.38,0,0,0,1,4.65,3.31,3.31,0,0,0,2.79.42Z" transform="translate(900.62 1338.18)"/><path class="cls-34" d="M-653.38,293.49a3.35,3.35,0,0,0,1.45-.89c4.55-4.77,9.28-9.35,13.95-13.91,16.32-15.88,33.18-32.3,42.34-55.46a3.37,3.37,0,0,0-1.94-4.36,3.32,3.32,0,0,0-4.31,1.89c-8.67,21.82-24.26,37-40.76,53.12-4.73,4.61-9.52,9.24-14.13,14.07a3.38,3.38,0,0,0,.12,4.75,3.34,3.34,0,0,0,3.28.79Z" transform="translate(900.62 1338.18)"/><path class="cls-34" d="M-654.17,293.06a3.34,3.34,0,0,0,2.36-3.17,3.33,3.33,0,0,0-3.27-3.41c-4.49-.07-9-1.35-13.77-2.7-1.7-.49-3.4-1-5.1-1.4-30-7.55-60.47-18.53-93-33.58a3.4,3.4,0,0,0-4.49,1.64,3.39,3.39,0,0,0,1.64,4.46c33,15.22,63.81,26.34,94.26,34,1.63.41,3.27.88,4.91,1.34,5,1.42,10.07,2.88,15.47,3a4.12,4.12,0,0,0,1-.14Z" transform="translate(900.62 1338.18)"/><path class="cls-34" d="M-694.57,192.46a3.24,3.24,0,0,0,2-1.63,3.39,3.39,0,0,0-1.39-4.55c-20.32-11-44-15.7-66.78-20.27-6.55-1.31-13-2.6-19.35-4a3.37,3.37,0,0,0-4,2.53,3.36,3.36,0,0,0,2.55,4c6.31,1.43,12.86,2.74,19.47,4.06,22.38,4.47,45.49,9.1,65,19.59a3.29,3.29,0,0,0,2.55.27Z" transform="translate(900.62 1338.18)"/><path class="cls-34" d="M-693.48,189.4a3.25,3.25,0,0,0,1.94-1.49c10.86-18.27,19.84-38,28.51-57.18l1.7-3.77a3.35,3.35,0,0,0-1.7-4.45,3.36,3.36,0,0,0-4.43,1.68l-1.69,3.77c-8.62,19-17.47,38.57-28.15,56.51a3.35,3.35,0,0,0,1.15,4.6,3.34,3.34,0,0,0,2.67.33Z" transform="translate(900.62 1338.18)"/><path class="cls-34" d="M-737.15,102.69a3.23,3.23,0,0,0,2.12-1.88c2.61-6,5.52-11.88,8.37-17.59,4.8-9.73,9.77-19.78,13.35-30.59a3.35,3.35,0,0,0-2.12-4.25,3.38,3.38,0,0,0-4.25,2.13c-3.46,10.36-8.31,20.21-13,29.73-2.85,5.79-5.76,11.78-8.43,17.9a3.3,3.3,0,0,0,1.7,4.42,3.4,3.4,0,0,0,2.3.13Z" transform="translate(900.62 1338.18)"/><path class="cls-34" d="M-739.54,99.35a3.27,3.27,0,0,0-2.25-1.73c-6.35-1.44-12.7-3.19-18.85-4.91-10.46-2.88-21.27-5.87-32.55-7.35A3.34,3.34,0,0,0-797,88.24,3.37,3.37,0,0,0-794.08,92c10.83,1.45,21.41,4.36,31.65,7.21,6.23,1.72,12.65,3.45,19.17,4.92a3.31,3.31,0,0,0,4-2.5,3.4,3.4,0,0,0-.3-2.29Z" transform="translate(900.62 1338.18)"/><path class="cls-36" d="M-608.69,809.72a4.71,4.71,0,0,0,1-.47,4.53,4.53,0,0,0,1.51-6.29c-113.48-187.36-174-366-179.72-531.1a4.54,4.54,0,0,0-4.73-4.41,4.59,4.59,0,0,0-4.42,4.73C-789.2,438.81-728.3,619-614,807.71a4.64,4.64,0,0,0,5.28,2Z" transform="translate(900.62 1338.18)"/><path class="cls-36" d="M-673,736c6.61-2,13.89-5.41,16.74-12a4.56,4.56,0,0,0-2.36-6,4.62,4.62,0,0,0-6.07,2.4c-2.12,5-11.89,7.23-15.1,8-22.14,5.15-46.58-2.34-63.81-19.54a4.52,4.52,0,0,0-6.43,0,4.53,4.53,0,0,0,0,6.48c19.41,19.43,47.13,27.85,72.3,22,1.52-.35,3.09-.75,4.73-1.23Z" transform="translate(900.62 1338.18)"/><path class="cls-36" d="M-635.68,719c25-7.49,35.3-25.43,31.48-54.62a4.63,4.63,0,0,0-5.16-3.94,4.52,4.52,0,0,0-3.94,5.14c3.52,26.67-6,40.88-30.75,46.11l-.79.15c-4.73,1-9.71,2.07-14.56,3.6a4.55,4.55,0,0,0-3,5.76,4.69,4.69,0,0,0,5.76,3c4.43-1.39,8.92-2.37,13.65-3.37l.79-.16c2.24-.47,4.42-1,6.49-1.65Z" transform="translate(900.62 1338.18)"/><path class="cls-36" d="M-661.1,699.74a42.09,42.09,0,0,0,10.92-5.31c18.74-12.27,26.08-33.53,18.74-54.17a4.45,4.45,0,0,0-5.82-2.78,4.53,4.53,0,0,0-2.79,5.84c5.88,16.52-.06,33.57-15.16,43.45-5.77,3.76-10.44,5.3-15.11,5a4.59,4.59,0,0,0-4.91,4.26A4.58,4.58,0,0,0-671,700.9a27.89,27.89,0,0,0,9.89-1.16Z" transform="translate(900.62 1338.18)"/><path class="cls-36" d="M-681.6,708.74c7.22-2.16,12.43-6.65,15.22-13a4.57,4.57,0,0,0-2.36-6,4.64,4.64,0,0,0-6.07,2.38c-1.69,4-5,6.59-9.88,8-13.1,3.64-34.33-3.22-43.19-9.54a4.64,4.64,0,0,0-6.43,1.06,4.62,4.62,0,0,0,1.09,6.4c10.31,7.37,34.45,15.5,51,10.91l.61-.18Z" transform="translate(900.62 1338.18)"/><path class="cls-36" d="M-680.27,669a35.38,35.38,0,0,0,10.86-5.87,56.62,56.62,0,0,0,18.74-25c6.13-16.5,2.13-27.06-7.52-40.78a4.56,4.56,0,0,0-6.37-1.13,4.59,4.59,0,0,0-1.09,6.38c8.31,11.9,11.22,19.39,6.37,32.32a47.66,47.66,0,0,1-15.65,20.83c-3.27,2.45-7.58,5.23-12,4.92a4.52,4.52,0,0,0-4.85,4.25,4.56,4.56,0,0,0,4.25,4.89,19.7,19.7,0,0,0,7.21-.85Z" transform="translate(900.62 1338.18)"/><path class="cls-36" d="M-684.27,672.35a4.56,4.56,0,0,0,3.28-3.93,4.59,4.59,0,0,0-4.13-5c-3.52-.36-6.43.82-9,1.84a23.12,23.12,0,0,1-3.4,1.19c-16.14,3.77-39.25-10-49.07-24.81a4.6,4.6,0,0,0-6.37-1.28,4.57,4.57,0,0,0-1.27,6.35c11.76,17.72,38.21,33.47,58.77,28.67a30.62,30.62,0,0,0,4.79-1.62c1.88-.75,3.34-1.34,4.61-1.22a4.46,4.46,0,0,0,1.76-.17Z" transform="translate(900.62 1338.18)"/><path class="cls-36" d="M-695.67,643a26.33,26.33,0,0,0,15.95-13c7.52-13.74,5.4-34.68.24-48.32a4.54,4.54,0,0,0-5.88-2.67,4.57,4.57,0,0,0-2.67,5.9c4.61,12.12,6.13,30,.3,40.69A17.36,17.36,0,0,1-700,634.67a4.58,4.58,0,0,0-3.52,5.43,4.54,4.54,0,0,0,5.4,3.54c.85-.18,1.64-.39,2.43-.62Z" transform="translate(900.62 1338.18)"/><path class="cls-36" d="M-698.22,644.49a4.67,4.67,0,0,0,3.28-4.73,4.64,4.64,0,0,0-4.92-4.22c-23.89,1.81-45.55-20.83-55.56-42.62a4.56,4.56,0,0,0-6.06-2.24,4.54,4.54,0,0,0-2.25,6.07c11.29,24.58,36.34,50.07,64.54,47.92a3.63,3.63,0,0,0,1-.18Z" transform="translate(900.62 1338.18)"/><path class="cls-36" d="M-713.26,592.43a26.67,26.67,0,0,0,8.55-5l1.4-1.08a100.83,100.83,0,0,0,20.92-20.29c11.95-15.82,11.53-27.67,9.46-45.29a4.6,4.6,0,0,0-5.09-4,4.55,4.55,0,0,0-4,5.09c2.06,17.53,1.94,25.94-7.71,38.69a92,92,0,0,1-19,18.46l-1.52,1.17c-3.4,2.58-5.4,4-8,3.58a4.65,4.65,0,0,0-5.33,3.73,4.61,4.61,0,0,0,3.76,5.3,13.88,13.88,0,0,0,6.61-.38Z" transform="translate(900.62 1338.18)"/><path class="cls-36" d="M-716.17,595.4a4.58,4.58,0,0,0,3.27-4.14,4.59,4.59,0,0,0-4.3-4.82c-3-.16-6.07-.05-9.1.08a85,85,0,0,1-9.16,0c-15-1.07-28.81-9.91-43.37-27.82a4.59,4.59,0,0,0-6.43-.67,4.63,4.63,0,0,0-.67,6.45c10.25,12.59,26.51,29.52,49.8,31.18a91.13,91.13,0,0,0,10.19,0c2.79-.11,5.52-.22,8.25-.08a4.41,4.41,0,0,0,1.52-.19Z" transform="translate(900.62 1338.18)"/><path class="cls-36" d="M-724.48,570c19-5.7,29.35-31.21,30.69-48.44a4.59,4.59,0,0,0-4.25-4.92,4.57,4.57,0,0,0-4.91,4.21c-1.15,14.72-10.19,37.89-26,40.83a4.57,4.57,0,0,0-3.64,5.34,4.56,4.56,0,0,0,5.34,3.67,24.72,24.72,0,0,0,2.79-.69Z" transform="translate(900.62 1338.18)"/><path class="cls-36" d="M-731.46,571.48a12.13,12.13,0,0,0,5.46-3.41,4.52,4.52,0,0,0-.18-6.47,4.53,4.53,0,0,0-6.43.17,3.5,3.5,0,0,1-3.22,1.06c-11.28-1.06-32.44-26.81-37.6-34.85a4.63,4.63,0,0,0-6.37-1.38,4.56,4.56,0,0,0-1.33,6.34c.24.37,25.71,37.26,44.46,39a13.44,13.44,0,0,0,5.21-.48Z" transform="translate(900.62 1338.18)"/><path class="cls-36" d="M-732.43,534a30.21,30.21,0,0,0,8.37-4.31c15.29-10.6,21.29-27.71,17.35-49.47a4.62,4.62,0,0,0-5.34-3.69,4.64,4.64,0,0,0-3.7,5.33c2.25,12.52,1.76,29.68-13.53,40.3-2.85,1.94-6.42,4-9.27,3.16a4.56,4.56,0,0,0-5.71,3,4.54,4.54,0,0,0,3,5.74,14.75,14.75,0,0,0,8.86-.07Z" transform="translate(900.62 1338.18)"/><path class="cls-36" d="M-739.83,534.75a26.11,26.11,0,0,0,4.19-1.67,4.61,4.61,0,0,0,2.06-6.16,4.63,4.63,0,0,0-6.19-2,13.94,13.94,0,0,1-12.86.13c-16.37-7.58-30.57-40.44-34.21-55.53a4.54,4.54,0,0,0-5.52-3.38,4.7,4.7,0,0,0-3.39,5.53c2.36,9.72,16.74,51.24,39.24,61.7a23,23,0,0,0,16.68,1.41Z" transform="translate(900.62 1338.18)"/><path class="cls-36" d="M-747.59,491.26a18.56,18.56,0,0,0,9-6c12.92-15.21,8.31-51.9,6.37-60.89a4.58,4.58,0,0,0-5.46-3.51,4.54,4.54,0,0,0-3.51,5.45c2.79,12.88,4.42,42.64-4.37,53a9.49,9.49,0,0,1-8.31,3.54,4.6,4.6,0,0,0-4.85,4.34,4.59,4.59,0,0,0,4.36,4.81,20.1,20.1,0,0,0,6.8-.78Z" transform="translate(900.62 1338.18)"/><path class="cls-36" d="M-755.23,491.71h.06a8.63,8.63,0,0,0,5.15-4.56A4.6,4.6,0,0,0-752,481a4.63,4.63,0,0,0-6.13,1.81,25.05,25.05,0,0,1-3.21-1.58c-12-6.65-19.17-24.22-19.71-37.38a4.62,4.62,0,0,0-4.8-4.37,4.56,4.56,0,0,0-4.36,4.79c.67,15.54,8.67,36.24,24.44,45,3,1.63,6.61,3.66,10.5,2.49Z" transform="translate(900.62 1338.18)"/><path class="cls-36" d="M-767.18,436.07a4.41,4.41,0,0,0,1.94-1.18,54.75,54.75,0,0,1,7.58-6c1-.78,2.18-1.56,3.27-2.39,21.48-16,19-38.11,15.11-57.58a4.65,4.65,0,0,0-5.46-3.57,4.64,4.64,0,0,0-3.58,5.4c4.49,21.88,4,36.81-11.52,48.4-1,.79-2.13,1.53-3.16,2.26a63.06,63.06,0,0,0-8.79,7.1,4.65,4.65,0,0,0,.06,6.49,4.66,4.66,0,0,0,4.55,1.11Z" transform="translate(900.62 1338.18)"/><path class="cls-36" d="M-766.46,435.15c.79-.24,1.58-.51,2.37-.83a4.55,4.55,0,0,0,2.55-6,4.53,4.53,0,0,0-6-2.55c-18.07,7.37-41.55-17.13-50.1-31.79a4.52,4.52,0,0,0-6.25-1.64,4.55,4.55,0,0,0-1.69,6.27c9,15.43,34.87,43.77,59.07,36.5Z" transform="translate(900.62 1338.18)"/><path class="cls-36" d="M-773.49,394c14.49-4.33,24.26-31.84,25.41-35.34a4.52,4.52,0,0,0-2.85-5.81,4.62,4.62,0,0,0-5.82,2.86c-4.43,13.13-14.26,30.74-21.17,29.66a4.55,4.55,0,0,0-5.22,3.81,4.54,4.54,0,0,0,3.76,5.24,13.06,13.06,0,0,0,5.89-.42Z" transform="translate(900.62 1338.18)"/><path class="cls-36" d="M-776.95,398.15a4.62,4.62,0,0,0,3-2.91,4.63,4.63,0,0,0-2.85-5.82c-14.68-5-24.44-20.1-30.08-31.88a4.63,4.63,0,0,0-6.13-2.16,4.61,4.61,0,0,0-2.12,6.11c9.28,19.44,21.17,31.75,35.36,36.6a4.59,4.59,0,0,0,2.79.06Z" transform="translate(900.62 1338.18)"/><path class="cls-36" d="M-782.71,347a3.42,3.42,0,0,0,1.09-.5,87.44,87.44,0,0,1,11.52-5.67c10.62-4.59,21.66-9.34,21.48-29.14a4.63,4.63,0,0,0-4.61-4.54,4.57,4.57,0,0,0-4.55,4.63c.12,13.71-5.58,16.17-16,20.64a91.69,91.69,0,0,0-12.68,6.29,4.63,4.63,0,0,0-1.52,6.31,4.62,4.62,0,0,0,5.22,2Z" transform="translate(900.62 1338.18)"/><path class="cls-36" d="M-788.66,345.43a16.18,16.18,0,0,0,4.73-2.32,4.59,4.59,0,0,0,1.1-6.39,4.56,4.56,0,0,0-6.37-1.08c-3.58,2.54-8.61.88-12.19-.95-12.38-6.39-23.3-22.08-23.3-28.17a4.59,4.59,0,0,0-4.61-4.58,4.53,4.53,0,0,0-4.54,4.6c0,10.78,14.31,29.1,28.26,36.3,7.22,3.72,12.8,3.82,16.92,2.59Z" transform="translate(900.62 1338.18)"/><path class="cls-36" d="M-787.2,310.7a3.26,3.26,0,0,0,.42-.15c18.81-7.64,35.73-25,31.18-46.56a4.53,4.53,0,0,0-5.4-3.55,4.5,4.5,0,0,0-3.52,5.42c3.4,16.39-10.43,30-25.71,36.2a4.58,4.58,0,0,0-2.49,6,4.55,4.55,0,0,0,5.52,2.67Z" transform="translate(900.62 1338.18)"/><path class="cls-37" d="M-429.39,435.9c-8.61-6-5.33-35.92-3.52-46.94,5.71-34.46,22.51-72,47.92-96.44,9.16-8.78,31.24-27.27,36.7-7.18,4.49,16.42-12,40.15-19.47,53.32-9.89,17.45-20.62,34.58-32.88,50.46-9.88,12.83-31.72,33.07-28.75,46.78Z" transform="translate(900.62 1338.18)"/><path class="cls-37" d="M-426.9,433.09c18-6.09,41-5.87,59.38-3.37,24.2,3.28,45.49,13.21,65.27,27.3,8.61,6.12,30.51,23.94,24.38,36.78-11.4,23.93-75.82-7.65-89.22-14.73-18-9.53-51-26.15-59.81-46Z" transform="translate(900.62 1338.18)"/><path class="cls-37" d="M-334,373.63c-4.73-8.65-1.82-26.54-.72-35.82,2.66-23.23,11-49.89,24.14-69.48,6.49-9.62,23.59-29.22,37.78-22.48,10.62,5.07,9.83,25.42,8.62,35-2.13,16.82-11.35,31.3-20.75,45-14.37,20.75-30.75,40.68-49.07,47.85Z" transform="translate(900.62 1338.18)"/><path class="cls-37" d="M-332.22,373.51c10-7.37,26.93-6.8,38.76-6.14a185.18,185.18,0,0,1,61.26,14.2c14.86,6.38,44.83,19.43,49.74,37.26,9.16,33.32-50.28,16.24-63.32,11.22-20.44-7.83-40.28-16.28-58.78-28.1-9-5.81-24.56-14-27.66-28.44Z" transform="translate(900.62 1338.18)"/><path class="cls-37" d="M-250.33,330.73c-8.49-5.18,8.31-41.12,10.07-45.28,8.73-20.34,19.28-43.78,36.39-58.54,9.34-8.1,30.27-21.22,41.06-7.7,20,25-24.81,64.91-40.7,77.44-16.07,12.65-40.15,24.24-46.82,34.08Z" transform="translate(900.62 1338.18)"/><path class="cls-37" d="M-247.72,330.93c10.13-3.48,22.86-2.92,33.3-2.68,20.74.48,42.7,2.17,62.41,9.05,15.89,5.53,42.82,16.72,50.4,33.23,12.92,28-44.46,13.34-54.59,10.91-33.9-8.12-75.09-17.75-91.52-50.51Z" transform="translate(900.62 1338.18)"/><path class="cls-37" d="M-155.83,300.49c.73-11.6,8.13-22.9,13.77-32.61,9.46-16.26,21-33.84,36-45.27,10.37-7.84,29.84-20.06,42.82-9.58,19.47,15.73-7.7,45.16-21.47,54.47s-29.06,15.16-44.22,21.87c-8.55,3.8-20.56,6.64-26.93,11.12Z" transform="translate(900.62 1338.18)"/><path class="cls-37" d="M-154.19,303c9.09-4.75,21.59-5.58,31.84-6.3,24.5-1.7,88.5-2.5,96.87,29.56,6.49,24.94-39.07,14.2-50.95,11.47-18-4.14-34.82-10.33-51.8-17.42-10-4.18-26.15-7.88-26-17.31Z" transform="translate(900.62 1338.18)"/><path class="cls-37" d="M-492.17,499.28c13.29-13.52,46.95-15.93,64.12-16.38,17.83-.47,109.6,6.62,81.09,42.29-21.65,27-68.54,11.58-94.8,1.61-14.13-5.35-25.78-12.94-38-21.47-4.12-2.88-8.74-7.06-12.44-6.05Z" transform="translate(900.62 1338.18)"/><path class="cls-37" d="M-516.31,475.61c4.43-23.6-5.82-55.05-14.49-76.34-8.8-21.62-22.75-45.85-45.68-54.91-19.71-7.79-34.14,5.16-34.69,25-1.46,50.41,55.92,82.19,94.86,106.29Z" transform="translate(900.62 1338.18)"/><path class="cls-37" d="M-483.55,391.47c-16.74-18.12-38.22-27.73-50.65-50.75a102,102,0,0,1-11-66.2c2.37-13.76,10.92-35.44,28.39-28.46,29.54,11.8,37.48,65.84,38.45,92.73.49,14,5.58,39.34-5.15,52.68Z" transform="translate(900.62 1338.18)"/><path class="cls-37" d="M-447.58,310.47c-9.95-8.94-18-27.62-23.23-39.92-8.62-20.33-15.23-46.19-15.05-68.61.12-12.77,4.49-37.51,21.84-37.42,27.23.13,33.48,61.68,34,79.71.66,24.53.91,51.49-17.53,66.24Z" transform="translate(900.62 1338.18)"/><path class="cls-37" d="M-397.54,230c-10.19-8.65-14.14-29.64-17.71-41.5-6.07-20.1-10-43.88-4.86-64.64,2.49-10,10.56-33,25.3-30.6,10.55,1.74,15.28,22.16,17.22,30.09,3.58,14.58,2.25,29.2-1.33,43.63-3.7,14.61-8.8,28.93-12.68,43.51-1.58,5.82-7.52,17.71-5.94,19.51Z" transform="translate(900.62 1338.18)"/><path class="cls-37" d="M-393.48,229c5.16-10.69,17.9-18.62,26.93-25.69C-347,188-327,174.78-302.74,168.62c8.25-2.09,35.55-7.89,39.25,3,7.21,21.37-51.5,40.16-62.9,44.11-15.11,5.21-30.33,9.88-46.22,12-7.95,1.09-20.69-.25-20.87,1.21Z" transform="translate(900.62 1338.18)"/><path class="cls-37" d="M-336.83,141.49c-4.49-15.31-14.49-27.67-18.19-44-5-22-9.53-49.82-3.28-72.12,3.22-11.51,13.77-31.07,27.72-23.2C-306.44,15.8-315.29,66.79-319,88.34c-3,17.93-7.77,41.07-17.84,53.15Z" transform="translate(900.62 1338.18)"/><path class="cls-37" d="M-333.55,140.17c4.06-12.58,19.35-24.68,28.87-32.82C-288.24,93.3-268,82.14-247,77c9.41-2.29,37.85-10.11,45.62-.16,17.77,22.69-117.86,64.39-132.17,63.31Z" transform="translate(900.62 1338.18)"/><path class="cls-37" d="M-285.76,75.84c-6.12-16.45-.66-39.08,1.76-55.86,4.92-34.54,25.84-83.66,67-83.55,39.18.11,7.58,57.09-2.55,71.11-12.37,17.08-29,31.28-44.58,45.37-8.8,7.94-22.5,16.67-21.66,22.93Z" transform="translate(900.62 1338.18)"/><path class="cls-37" d="M-543.42,544.16c1.27-16-3.58-32.39-11.1-46.59-10.92-20.54-28.87-36.78-49-48.16-7.46-4.2-33.36-19.35-41.24-8-5.77,8.31,6.55,29.71,10.37,37.2,8.25,16,19.89,28.79,33.72,40.1,10.86,8.88,45.13,37.76,57.26,25.4Z" transform="translate(900.62 1338.18)"/><path class="cls-37" d="M-564,616.38c-1.46-1.26-2.25-5.81-3.09-9-5.1-19.84-13.89-38.52-27.72-53.93-20.63-22.89-50.41-40.24-82.19-36.64-23.9,2.71-35.67,20.53-21.78,42.22,12.86,20.06,37.55,30.84,58.9,38.82,18.68,7,39.67,16.6,59.32,20.58,6.37,1.28,12.68.87,16.56-2Z" transform="translate(900.62 1338.18)"/><path class="cls-37" d="M-580.36,702.05c-.3.43.73,2.58-.3.88-10.62-26.38-29.42-45.47-53.62-60.82-12.07-7.68-24.32-14.19-38.7-15.58-7-.67-23.71-2.21-30.14,3.6-13,11.9,7.21,33.69,16.49,41.44,23.17,19.35,57.51,31.75,86.32,40.52,7,2.12,15.1.7,19.95-10Z" transform="translate(900.62 1338.18)"/><path class="cls-37" d="M-563,620.4c13.22-9.51,26.63-18.31,40.82-26.54,12.25-7.14,107.91-52.13,104.57-12.21-1.09,12.79-17.65,23.83-27.48,29.23-17,9.31-35.66,13-54.71,14.66-22.26,2-44-.56-63.2-5.14Z" transform="translate(900.62 1338.18)"/><path class="cls-37" d="M-586.85,711c3.94-8.21,14.44-14.9,21.6-19.78,21.23-14.43,48.28-27,73.63-31.57,11.65-2.11,41.37-7.51,51.62,2.22,22.38,21.2-48,43.77-58.29,46.32-19.23,4.79-40.22,8.76-60.11,7.73-7-.37-19.05-1.83-28.45-4.92Z" transform="translate(900.62 1338.18)"/><path class="cls-37" d="M-609.66,822.7c-1-22.19-12.91-42.25-25.53-60.11-15.47-21.79-35.54-47.41-63.51-53.06-26.62-5.39-41.3,12-31.9,37.6,7.34,20,28.63,33.89,45.79,45.31,17.59,11.69,37.85,17.11,56.47,26.62,5.34,2.71,17.11,5.06,18.68,3.64Z" transform="translate(900.62 1338.18)"/><path class="cls-37" d="M-603.77,827.89c-.12-3.48,1.82-5.76,3.7-8.86,10.73-17.78,27.3-32.53,44.58-43.62,13.53-8.68,91.95-39.11,86.5.61-4.49,32.47-63.27,43.65-88.08,49.93-14.61,3.68-41.73,7.82-46.7,1.94Z" transform="translate(900.62 1338.18)"/><path class="cls-34" d="M-633.13,1013.29a4.59,4.59,0,0,1-2.79-4.66c25.78-268,81.22-484.37,169.41-661.41,47-94.33,108.76-181.88,168.5-266.55q10.83-15.24,21.53-30.47a4.57,4.57,0,0,1,6.37-1.13,4.59,4.59,0,0,1,1.1,6.39c-7.1,10.17-14.32,20.33-21.48,30.5C-350,170.34-411.62,257.6-458.32,351.3c-87.65,176-142.78,391.32-168.44,658.2a4.6,4.6,0,0,1-5,4.13,4.88,4.88,0,0,1-1.34-.34Z" transform="translate(900.62 1338.18)"/><path class="cls-34" d="M-555,589.45a4.59,4.59,0,0,1-2.55-5.71c10.73-31,38.88-62.59,59.44-85.67l.79-.88c93-104.49,222.18-176.22,373.39-207.45a4.53,4.53,0,0,1,5.4,3.56,4.56,4.56,0,0,1-3.52,5.41c-149.33,30.83-276.71,101.57-368.42,204.57l-.79.89c-20.07,22.5-47.49,53.33-57.62,82.56a4.55,4.55,0,0,1-5.82,2.84,1.54,1.54,0,0,0-.3-.12Z" transform="translate(900.62 1338.18)"/><path class="cls-36" d="M-586.23-32.87c14.44-17.18-4-40.74-24.87-33.07-39.36,14.48,2.79,64.58,24.87,33.07Z" transform="translate(900.62 1338.18)"/><path class="cls-37" d="M-370.1-177.47c-29,0-29.11,45.12,0,45.12s29.06-45.12,0-45.12Z" transform="translate(900.62 1338.18)"/><path class="cls-34" d="M-501.17,111.12c-.3-.91-.54-1.81-.85-2.72-2.91-9.41-12-17.48-22.32-17a24,24,0,0,0-22.38,17c-.24.91-.55,1.81-.85,2.72-4.67,15,8,30.44,23.23,30.44s27.84-15.42,23.17-30.44Z" transform="translate(900.62 1338.18)"/><path class="cls-38" d="M-406.5,970.7c-5.89-4.08-11.64-8.31-17.5-12.34-15.89-11-31.56-19-51.05-21.05-20.8-2.22-41.14,2.39-60.17,10.15a518.17,518.17,0,0,0,45.1-74c7.82,6.87,20.16,10.86,28.51,13.55,13.19,4.38,25,7.24,38.87,5.75,16.19-1.8,32.09-7.48,46.27-15.45,3.68-2,8.27-6.73,12.47-6.46-27.28-9.59-58-22.29-87.35-18.77-11.69,1.38-26,6.77-35.62,15.12,6.14-12.44,12.15-25.48,18.05-39.29,3.25-7.65,6.36-15.33,9.4-23,11.86,8.76,31.62,11.92,47.6,11,21.67-1.21,53.16-7.72,70.25-23-8.09-2.19-17.82-1.48-26.17-3-17.21-3.2-33.09-9.6-51-7-12.9,1.86-31.26,6.9-39.47,18.8,8.27-21.35,15.77-43,22.8-64.74,9.78,12.43,30.85,15.7,48,14.1,26.54-2.5,48.68-16.27,73-25.27-22.45-7.65-49.73-13.41-73.37-11.45-15.23,1.25-38.1,6.45-47.18,21q8.3-25.82,16-51.49c8.11,12.86,40.29,8.56,51.55,6.33,17.52-3.52,34.24-10.48,50.71-17.2,5.2-2.08,11.77-4,16-7.26-27.42-12.14-61.87-18.53-90-6-2.81,1.2-17.74,8.57-25.41,14.51,1.25-4.13,2.49-8.31,3.71-12.49,5.32-17.77,10.65-35.68,16.21-53.57,8.26,11.11,29.57,17.86,44.71,17.8,25.61-.22,45.45-8.38,66.53-21.46-8-2.51-16.35-4.47-24.46-6.77-14.43-4.09-28.65-10.13-43.79-10.82-15.65-.65-30.91,3.88-41.2,15.55,6.23-19.86,12.8-39.67,19.93-59.27,17.23,10.79,33.82,21.32,56.39,22A94.23,94.23,0,0,0-270,553.62c3.86-2.14,7.5-4.8,11.47-6.65-24.47-7.52-49.32-21.26-75.41-21.13-11.34.09-28.85,2.38-38.35,11.19,7.32-19.76,15.28-39.27,24.16-58.39,5.32,10.79,24.11,19.18,33.68,23.19,20.47,8.64,53.92,7.87,71.14-8.06-9.81-4-19.82-5.3-29.55-10.39-13.22-6.91-25.17-16.77-39.7-20.9-7.71-2.2-20.47-2-29.19,2.87Q-334.14,450-325.65,435c1.87,5.89,10.19,9.64,15.07,11.75A78.63,78.63,0,0,0-273.95,453c15.8-1.05,30.49-6,45.26-11.31,4.08-1.44,8.54-4.07,12.88-4.2-7.22-3.52-15.69-5.21-23.33-7.67-14.19-4.69-28.39-11.29-43.32-12.69-12.31-1.15-27.33,1.17-38,8.83a487.08,487.08,0,0,1,28-42.08c3.84.76,11.94,1.71,16.28,2.32a75,75,0,0,0,34.26-3.69c16.91-6,31.7-18,45.36-29.23-7.43-1.81-15.82-.43-23.31.17-14.7,1.21-31.69-.06-45.74,4.92A60.25,60.25,0,0,0-276,363.32l1.44-1.75a2.76,2.76,0,0,0-.31-3.89,2.73,2.73,0,0,0-3.89.3c-2.06,2.42-4.08,4.83-6.08,7.31,2.91-8.63,3.83-17.87,2-26.18-4.43-20.46-20.1-33.26-29.38-51,3.68,9.19-.82,21-3.15,29.84-3.45,13.11-6.5,26.09-1.41,39.27,3,7.71,10.59,19.92,19,24.71q-14.36,19.35-26.5,39.7c.25-10.35-.24-20.57-4.39-30.71-9.91-24.19-44-24.47-63.26-38.77-.59,22,5.91,51.9,23.74,66.46A64.5,64.5,0,0,0-337.69,432a25.4,25.4,0,0,0,7,.66q-8.4,14.72-15.85,29.93a41.23,41.23,0,0,0-22.79-27.88c-12.68-6-26.78-6.6-40.29-9.62-8.33-1.9-15.84-5.3-23.74-8.21,3.23,8,5.39,16.15,9.31,23.87,7.12,14,18.91,23.61,33.39,29.54,12.27,5.05,29.66,7.59,40.54-.37C-360.24,491.21-369.23,513-377.41,535c.59-9.49-4.38-20.65-9.26-27.08-16-21-44.92-27.2-68.27-36.6,0,29.19,11.6,56.15,40.19,67.52a70.17,70.17,0,0,0,29.18,4.6,22.48,22.48,0,0,0,5.28-.68c-6.38,17.61-12.29,35.37-17.93,53.21-.6-10.62-5.06-20.15-12.76-28.46-10.7-11.51-25.24-16.57-40.44-19.09-10.28-1.66-22.12-1.85-31.83-6.08,2.83,8.48,4.62,17.65,8.93,25.85,7.28,13.88,21.11,25.67,34.75,33,8.46,4.59,18.37,9.15,28,10.31a10.71,10.71,0,0,0,9.45-3.19c-5.35,17.23-10.5,34.49-15.6,51.67l-1.36,4.51c-.34-8.57-3.41-16.57-8-24.42C-442,614.38-476.32,612-502.87,609c2.63,4.57,3.75,10.16,5.08,15.22,3.89,14.7,11.62,25.66,23.75,35,9.83,7.6,21.62,14.59,33.74,17.69,4.74,1.21,10.95,3.75,18.23-2.24C-427,691-431.93,707.53-437.15,724c-6-39.6-54.84-49.16-88.68-58.13,6,6.71,7.46,18,11.3,26,7.8,16.31,19.25,27.62,36.18,34.14,13.82,5.32,27.43,6.29,38.12,7.56-7.21,22.39-14.91,44.75-23.44,66.71-.31-1.36-.53-2.74-.82-4.11a86.51,86.51,0,0,0-15.95-35.39c-17.93-23.49-45.93-29.3-71.22-40.86,4.39,5.72,4.71,14.24,6.58,21.11,4.27,15.61,13.76,28.28,26.56,38s25.44,17.14,41.36,19.84c5,.86,10,1.53,12.82,3.16Q-469,814-474,825.79c-6.19,14.49-12.51,28.14-19,41.07.28-1.35.56-2.76.73-4.15a69,69,0,0,0-5.79-36.8c-15.36-32.18-47.21-39.12-79-46.44,3.93,2.54,4.58,12.78,5.51,16.8,3.36,14.43,8.62,27.64,18.71,38.77,14.76,16.25,34.7,26.09,57.24,37.05-14.23,27.84-29.26,52.26-45.58,74.07,9-23.59,3.52-45.46-10-66.07-10-15.23-23.79-22.4-36.94-34-4.35-3.88-8.17-9.89-13.42-11.5-13.32,22.67,8.75,64.27,21.49,82.68,9.89,14.31,22.34,23.59,37.63,30.54a392.21,392.21,0,0,1-28.27,33.49c-3,3.22-6.09,6.63-9.23,10.12-12.26,13.58-24.93,27.68-39.86,35.59a2.74,2.74,0,0,0-1.14,3.73,2.59,2.59,0,0,0,1.48,1.27,2.62,2.62,0,0,0,2.25-.11c15.78-8.38,29.38-23.46,41.36-36.81,3.12-3.42,6.15-6.82,9.15-10a399.92,399.92,0,0,0,30.1-35.93c12.29,18.93,46.35,28.72,70.48,30.07,17.63,1,35.11-.15,52.61-2.38,4.31-.55,9.05-2.06,13.28-.63-.9-2.61-4-3.94-6.35-5.54Z" transform="translate(900.62 1338.18)"/><path class="cls-33" d="M1750.4,1138.06c42,7.61,84.06,15.65,127,13.83a466.88,466.88,0,0,0,136.65-26.6c17.32-6.28,60.4-18.47,66.67-38.81-8.31-5.77-18.87-5.77-28.57-7.32a338,338,0,0,0-71-3.68,679.51,679.51,0,0,0-149.91,25.34c-32.87,9.44-60.75,21.45-80.88,37.24Z" transform="translate(900.62 1338.18)"/><path class="cls-33" d="M1795.17,1136.9c40.22-14.41,80.63-28.46,116.93-51.54,38.7-24.53,75.44-56.16,105.05-91.36,11.88-14.08,43.11-46.11,38.37-66.86-10.09-.83-19.24,4.41-28.4,7.91a336.56,336.56,0,0,0-63.32,32.3,675.44,675.44,0,0,0-117.2,96.85c-23.75,24.6-41.88,49-51.43,72.7Z" transform="translate(900.62 1338.18)"/><path class="cls-33" d="M1802,1133.25c24.86-34.8,50.07-69.34,66.78-108.94,17.82-42.27,30-89.2,34.32-134.94,1.74-18.34,9.15-62.44-6.55-76.82-8.77,5-13.31,14.56-18.84,22.68a335.21,335.21,0,0,0-33.64,62.6,676.51,676.51,0,0,0-41.19,146.37c-5.5,33.71-6.53,64.1-.88,89Z" transform="translate(900.62 1338.18)"/><path class="cls-33" d="M1841.8,1122.53c-38.61,18.33-77.1,37-119,46.45a467.06,467.06,0,0,1-138.87,9.9c-18.37-1.55-63.1-2.06-74.45-20.11,6.51-7.71,16.7-10.47,25.67-14.51a331.41,331.41,0,0,1,67.58-22A675.45,675.45,0,0,1,1754,1107.64c34.19.58,64.25,4.94,87.8,14.89Z" transform="translate(900.62 1338.18)"/><path class="cls-33" d="M1805.91,1135.45c-42.59-3.45-85.26-6.47-126.31-19.27-43.76-13.67-87.48-34.62-125.21-60.84-15.14-10.51-53.64-33.31-54.46-54.59,9.51-3.48,19.71-.76,29.48.24a335.08,335.08,0,0,1,69.55,14.68,678.87,678.87,0,0,1,138.36,63c29.34,17.58,53.19,36.38,68.59,56.79Z" transform="translate(900.62 1338.18)"/><path class="cls-33" d="M1798.33,1133.7c-33-27.08-66.39-53.85-92.84-87.75-28.2-36.17-52.2-78.28-68.26-121.37-6.46-17.23-25.11-57.93-13.69-75.84,9.79,2.56,16.64,10.61,24.09,17a331.1,331.1,0,0,1,48.8,51.67A679.42,679.42,0,0,1,1774.3,1048c14.1,31.19,23,60.24,24,85.75Z" transform="translate(900.62 1338.18)"/><path class="cls-33" d="M1796.07,1125.71c-17.16-39.11-34.71-78.12-42.89-120.33-8.74-45-11-93.45-5.78-139.12,2.09-18.32,3.91-63,22.25-73.86,7.54,6.77,10,17.05,13.75,26.12a334.08,334.08,0,0,1,20,68.21,676.1,676.1,0,0,1,10.15,151.64c-1.58,34.18-6.83,64.09-17.5,87.34Z" transform="translate(900.62 1338.18)"/><path class="cls-34" d="M1809.65,1249.39a4,4,0,0,0,1.92-.06,4.6,4.6,0,0,0,3.34-5.58c-12.12-48.15-26.53-112.09-30.46-179.27-1.2-20.32-1.58-41.07-1.94-61.13-.41-23.12-.84-47.06-2.51-70.59-.74-10.51-1.3-21-1.83-31.48-.67-12.85-1.37-26.08-2.43-39.15l-.2-2.47c-.47-5.59-1-11.31,0-16.3a4.58,4.58,0,0,0-3.56-5.42,4.85,4.85,0,0,0-5.42,3.55c-1.3,6.3-.72,13-.21,18.93l.21,2.41c1.05,12.94,1.74,26.17,2.4,39,.55,10.52,1.1,21.1,1.85,31.6,1.64,23.35,2.08,47.1,2.5,70.1.36,20.18.74,41,2,61.5,4,68,18.49,132.46,30.7,181a4.65,4.65,0,0,0,3.64,3.39Z" transform="translate(900.62 1338.18)"/><path class="cls-34" d="M1785.41,1125.63a4.66,4.66,0,0,0,4.49-1.77c9.13-12.28,16.09-26,22.84-39.37,3.1-6.14,6.18-12.21,9.48-18.18,21.31-38.6,48-97.06,54.32-156.11a4.59,4.59,0,0,0-9.12-1c-6.12,57.54-32.32,114.75-53.23,152.63-3.34,6.08-6.48,12.27-9.62,18.45-6.57,13-13.37,26.43-22,38.07a4.54,4.54,0,0,0,1,6.39,4.89,4.89,0,0,0,1.9.87Z" transform="translate(900.62 1338.18)"/><path class="cls-34" d="M1786.67,1127.41a2.91,2.91,0,0,0,1.25,0c15.42-1.43,32.2-10.58,45.7-18l2.61-1.39c33.17-18.08,63.26-41.22,92.38-63.65q12.26-9.42,24.6-18.75a4.59,4.59,0,1,0-5.49-7.36c-8.29,6.25-16.49,12.52-24.7,18.85-28.83,22.19-58.65,45.14-91.18,62.87l-2.62,1.39c-12.76,7-28.62,15.7-42.16,16.94a4.58,4.58,0,0,0-.39,9.06Z" transform="translate(900.62 1338.18)"/><path class="cls-34" d="M1788.55,1130.15a11.48,11.48,0,0,0,1.32,0,373.08,373.08,0,0,1,43.86-2c33.22.23,64.12-3.87,96.82-8.18,10-1.36,20.11-2.66,30.34-3.91a4.57,4.57,0,0,0,4-5.06,4.62,4.62,0,0,0-5.09-4c-10.26,1.25-20.39,2.59-30.44,3.89-32.4,4.32-63,8.36-95.56,8.09a391.19,391.19,0,0,0-44.93,2.12,4.59,4.59,0,0,0-.32,9.08Z" transform="translate(900.62 1338.18)"/><path class="cls-34" d="M1787.37,1132.3a5.56,5.56,0,0,0,2-.09,4.61,4.61,0,0,0,3.21-5.67c-4.32-15.68-14.85-30.68-24.14-43.89-2.18-3.12-4.32-6.16-6.32-9.11-29.55-43.89-57.56-89.35-85.61-139a4.63,4.63,0,0,0-6.25-1.69,4.54,4.54,0,0,0-1.72,6.21c28.16,49.85,56.29,95.46,86,139.57,2,3,4.18,6.13,6.41,9.26,8.86,12.61,18.9,26.93,22.8,41.09a4.58,4.58,0,0,0,3.6,3.31Z" transform="translate(900.62 1338.18)"/><path class="cls-34" d="M1784,1124.56a4.58,4.58,0,0,0,1.67-9c-12.87-2.4-25-6.18-39.22-11.07-34.57-12-69.26-25.7-102.83-38.89l-30.85-12.14a4.6,4.6,0,0,0-3.34,8.57q15.43,6,30.84,12.07c33.64,13.28,68.42,27,103.19,39,14.62,5,27.1,9,40.53,11.43Z" transform="translate(900.62 1338.18)"/><path class="cls-34" d="M1599.21,1158.32a5.08,5.08,0,0,0,1,0c35.85-1,72.22-7.92,107.39-14.58q10.53-2,21-3.9c7-1.31,14.55-2.19,21.84-3.07,11.9-1.37,24.23-2.83,35.4-6a4.61,4.61,0,0,0-2.53-8.86c-10.47,3.07-22.42,4.49-34,5.83-7.43.9-15.11,1.81-22.4,3.12q-10.44,1.89-21,3.94c-34.82,6.56-70.83,13.41-105.94,14.42a4.61,4.61,0,0,0-4.45,4.71,4.67,4.67,0,0,0,3.75,4.41Z" transform="translate(900.62 1338.18)"/><path class="cls-35" d="M2132,906.87c.41-4.65,3.18-8.19,5.81-12,14.36-21.24,35.6-39,57.49-51.92,21.49-12.76,51.57-25.72,76.9-16.45,16.19,5.93,27.06,19.55,19.68,36.5-13.5,31.1-56.37,34.8-85.48,36.23-28.11,1.41-58-.24-74.4,7.67Z" transform="translate(900.62 1338.18)"/><path class="cls-35" d="M2131.34,898.93c3.84-5.42,3.45-13.31,4.07-19.54,2.51-25.16,2-52.77-5.67-77-7-22.27-22.77-47.33-48.18-50.23-24.84-2.85-41.16,12.63-40.64,36.57.92,40.12,37.51,65.94,65.25,89.14,7.29,6.1,13.64,11.3,17.58,20,1.13,2.59.63,4.69,7.59,1.06Z" transform="translate(900.62 1338.18)"/><path class="cls-35" d="M2184.06,798a208.61,208.61,0,0,0,11.58-69.2c0-22-1.85-52-22.42-65.14-15.86-10.12-49.76-11.21-60.31,7.76-8.22,14.91,8.79,37.28,17.22,47.66,12.24,15,27.33,28,38.36,44,8.71,12.66,14.89,26.43,15.57,34.87Z" transform="translate(900.62 1338.18)"/><path class="cls-35" d="M2249.1,693.71c3.75-17.87,15.61-33.56,19.87-51.7,8.31-35.49-9.95-83.19-54.46-62.72-34.83,16.05-7.08,52.21,7.89,72.27,12,16.12,16.35,28.87,26.7,42.15Z" transform="translate(900.62 1338.18)"/><path class="cls-35" d="M2249.89,690.18c2.43-14,27.12-25.16,38.21-30.73,22.74-11.38,52.3-18.18,77.08-10.41,14.83,4.65,34,16.69,29.65,35.1-7.92,34.26-60.95,10.47-80.6,5.51-13-3.26-70.42-19.82-64.34.53Z" transform="translate(900.62 1338.18)"/><path class="cls-35" d="M2314.07,608.27c-7.67-9.69-16.28-19.79-23.28-30.11-12.86-19-24.91-42.48-22.89-66.17,1.43-16.93,12.3-40.5,32.32-39.65,36.8,1.56,40.69,62.67,36,88.13-2,10.79-9,42.48-22.15,47.8Z" transform="translate(900.62 1338.18)"/><path class="cls-35" d="M2317.81,605.08a190.19,190.19,0,0,1,50.84-19.7c21.16-4.9,120-12.11,103.61,34.46-12.25,34.81-65.51,30.7-92.67,22.18-14.25-4.47-30.23-11.06-41.5-21.26-7.9-7.16-12.86-16.54-20.28-15.68Z" transform="translate(900.62 1338.18)"/><path class="cls-35" d="M2389.64,531.65c-24.67-24.07-45.55-134.14,13.27-119.11,59.53,15.2,9.54,93.54-13.27,119.11Z" transform="translate(900.62 1338.18)"/><path class="cls-35" d="M2390,528.76c10.28-12.17,33.56-13.56,48-15.82,20.09-3.16,85.33-5.65,85.24,27.59,0,28.64-53.73,19.68-69.48,16.7-15.25-2.9-30.22-7.07-43.63-15.05-10-5.95-17.63-14.93-20.12-13.42Z" transform="translate(900.62 1338.18)"/><path class="cls-35" d="M2467.18,471.41c-10.44-14.92-16.45-33.73-18.94-51.65-2-14.18-1.91-30.24,7.56-41.74,8.2-9.94,24.47-13.89,35.93-6.91,20.47,12.46,12.85,44,3.7,60.61-9.26,16.89-18.52,30.23-28.25,39.69Z" transform="translate(900.62 1338.18)"/><path class="cls-35" d="M2467.5,468.52c8.84-11.27,30.26-18.94,43.53-22.35,18.82-4.84,39.61-3.17,56.64,6.39,10.85,6.1,19.61,17.38,11.71,29.38-26.56,40.06-99.6,22.95-111.88-13.42Z" transform="translate(900.62 1338.18)"/><path class="cls-35" d="M2191.21,788.22c-2.63-15.13,20.45-29,30.23-35.06,17.94-11.11,40.43-19.12,61.81-17.27,12.72,1.1,31.62,8,34.56,22.69,5.13,26.1-34.15,41-52.43,44.11-14.8,2.5-29.24,2.5-43.63-2-10.48-3.26-19.45-9.73-30.54-12.5Z" transform="translate(900.62 1338.18)"/><path class="cls-35" d="M2518.66,426.15c4.85-4.69,3.06-13.47,3.45-19.62,2.22-35.43,21.41-76.77,61.58-80.47,37.35-3.42,44,34.8,26.16,61.32-18.94,28.25-62.67,41.35-91.19,38.77Z" transform="translate(900.62 1338.18)"/><path class="cls-34" d="M2068.69,1060.41a3.41,3.41,0,0,1-1-3.66c69.42-204.78,156.2-358,273.24-482.27C2386.8,525.8,2463.4,461,2568.62,381.84a3.36,3.36,0,1,1,4,5.37c-104.92,78.91-181.27,143.46-226.84,191.88-116.34,123.5-202.7,276-271.79,479.82a3.32,3.32,0,0,1-4.26,2.1,3.27,3.27,0,0,1-1.07-.6Z" transform="translate(900.62 1338.18)"/><path class="cls-34" d="M2256.58,681.63a3.1,3.1,0,0,1-.6-.6,3.33,3.33,0,0,1,.74-4.68c5.52-4.11,12.47-5.87,18.52-7.21,26-5.65,49.34-1.68,70.76,3.46a3.36,3.36,0,0,1-1.54,6.54c-20.65-4.95-43.14-8.8-67.8-3.44-5.38,1.18-11.52,2.71-16,6a3.32,3.32,0,0,1-4.11-.1Z" transform="translate(900.62 1338.18)"/><path class="cls-34" d="M2186.92,790.39a3.36,3.36,0,0,1-.42-4.73c16.52-19.81,53-22.95,77.2-25l3.7-.33A3.37,3.37,0,0,1,2268,767l-3.76.31c-23.08,2-57.88,5-72.62,22.65a3.38,3.38,0,0,1-4.73.42Z" transform="translate(900.62 1338.18)"/><path class="cls-34" d="M2128.93,905.5a3.43,3.43,0,0,1,0-5.17c25-20.47,55.83-27.51,85.6-34.34l5-1.16a3.37,3.37,0,0,1,1.55,6.56l-5,1.14c-30.35,7-59.08,13.52-82.84,33a3.34,3.34,0,0,1-4.28,0Z" transform="translate(900.62 1338.18)"/><path class="cls-34" d="M2125.77,906.25a3.11,3.11,0,0,1-1.14-2.11c-5.07-36.74-22.36-73.15-45.14-95a3.36,3.36,0,0,1,4.65-4.85c23.86,22.87,41.89,60.77,47.14,98.94a3.37,3.37,0,0,1-5.51,3Z" transform="translate(900.62 1338.18)"/><path class="cls-34" d="M2182.94,792.14a3.17,3.17,0,0,1-1.05-1.55,102.71,102.71,0,0,1-3.06-13.53,107.75,107.75,0,0,0-2.5-11.42,180.54,180.54,0,0,0-32.48-63.82,3.36,3.36,0,0,1,5.32-4.12,186.48,186.48,0,0,1,33.62,66.08,109.52,109.52,0,0,1,2.62,12.08,93.89,93.89,0,0,0,2.89,12.69,3.36,3.36,0,0,1-5.36,3.59Z" transform="translate(900.62 1338.18)"/><path class="cls-34" d="M2248.15,690.7a3.61,3.61,0,0,1-1.19-2c-1.25-6.94-2.09-13.76-2.9-20.36-2.38-19.12-4.62-37.17-15.93-54.69a3.36,3.36,0,1,1,5.64-3.64c12.15,18.8,14.47,37.6,17,57.51.78,6.51,1.66,13.25,2.86,20a3.39,3.39,0,0,1-2.72,3.9,3.34,3.34,0,0,1-2.73-.72Z" transform="translate(900.62 1338.18)"/><path class="cls-34" d="M2318,605a3.45,3.45,0,0,1-1-1.4c-2.31-6.17-4.86-12.25-7.36-18.27-8.76-21-17.81-42.74-17.13-67.64a3.36,3.36,0,0,1,3.5-3.24,3.31,3.31,0,0,1,3.22,3.43c-.6,23.47,7.75,43.58,16.59,64.86,2.54,6.1,5.13,12.25,7.47,18.5A3.37,3.37,0,0,1,2318,605Z" transform="translate(900.62 1338.18)"/><path class="cls-34" d="M2318.88,604.89a3.36,3.36,0,0,1,3.42-5.69c4.16,1.69,8.79,2.28,13.72,2.93,1.76.21,3.51.43,5.24.71,30.58,4.86,62.89,6.74,98.75,5.71a3.37,3.37,0,1,1,.23,6.73c-36.33,1-69-.87-100-5.8-1.66-.27-3.35-.49-5-.7-5.13-.66-10.39-1.32-15.39-3.36a3.88,3.88,0,0,1-.89-.53Z" transform="translate(900.62 1338.18)"/><path class="cls-34" d="M2395.58,528.27a3.23,3.23,0,0,1-1.21-2.28,3.4,3.4,0,0,1,3.07-3.64c23-2.1,46.61,2.86,69.38,7.62,6.54,1.37,13,2.73,19.37,3.9a3.39,3.39,0,0,1,2.69,3.91,3.35,3.35,0,0,1-3.93,2.69c-6.36-1.16-12.9-2.53-19.5-3.92-22.33-4.69-45.4-9.52-67.43-7.52a3.3,3.3,0,0,1-2.44-.76Z" transform="translate(900.62 1338.18)"/><path class="cls-34" d="M2395.77,525a3.26,3.26,0,0,1-1.19-2.14c-2.81-21.06-3.28-42.78-3.74-63.78l-.08-4.13a3.37,3.37,0,0,1,6.73-.14l.07,4.13c.47,20.83.9,42.34,3.67,63a3.35,3.35,0,0,1-5.46,3Z" transform="translate(900.62 1338.18)"/><path class="cls-34" d="M2470,462.47a3.28,3.28,0,0,1-1.22-2.56c-.05-6.51-.4-13.09-.77-19.47-.59-10.83-1.21-22-.25-33.37a3.36,3.36,0,1,1,6.69.55c-.89,10.89-.3,21.85.3,32.47.35,6.44.67,13.09.72,19.77a3.33,3.33,0,0,1-5.47,2.61Z" transform="translate(900.62 1338.18)"/><path class="cls-34" d="M2473.53,460.34a3.27,3.27,0,0,1,2.75-.71c6.4,1.17,12.93,2.07,19.27,2.9,10.74,1.46,21.86,3,32.81,6a3.35,3.35,0,1,1-1.8,6.46c-10.52-2.92-21.4-4.41-31.94-5.81-6.39-.87-13-1.8-19.55-3a3.33,3.33,0,0,1-1.54-5.86Z" transform="translate(900.62 1338.18)"/><path class="cls-36" d="M2073.93,1062.07a4.84,4.84,0,0,1-.76-.85,4.54,4.54,0,0,1,1.08-6.38c178-127.65,303.86-268.17,374.05-417.66a4.55,4.55,0,0,1,6.09-2.21,4.61,4.61,0,0,1,2.21,6.1c-70.87,150.92-197.7,292.65-377,421.22a4.67,4.67,0,0,1-5.65-.22Z" transform="translate(900.62 1338.18)"/><path class="cls-36" d="M2162.1,1019.57c-5.3-4.43-10.65-10.44-10.66-17.66a4.56,4.56,0,0,1,4.54-4.61,4.61,4.61,0,0,1,4.64,4.59c0,5.39,8.09,11.32,10.75,13.27,18.33,13.44,43.75,16.17,66.35,7.12a4.57,4.57,0,0,1,3.36,8.49c-25.48,10.23-54.28,7.08-75.12-8.21-1.26-.91-2.55-1.9-3.86-3Z" transform="translate(900.62 1338.18)"/><path class="cls-36" d="M2134.43,989.23c-20-16.72-22.46-37.26-7.47-62.6a4.63,4.63,0,0,1,6.3-1.6,4.53,4.53,0,0,1,1.6,6.28c-13.72,23.13-10.61,39.92,10.15,54.48l.66.45c4,2.78,8.11,5.72,12,9a4.55,4.55,0,0,1,.47,6.46,4.68,4.68,0,0,1-6.47.47c-3.52-3-7.27-5.68-11.22-8.46l-.67-.46c-1.87-1.32-3.66-2.68-5.32-4.06Z" transform="translate(900.62 1338.18)"/><path class="cls-36" d="M2165.36,981.54a42.06,42.06,0,0,1-8-9.17c-12.41-18.65-10.8-41.09,4.06-57.18a4.47,4.47,0,0,1,6.45-.27,4.55,4.55,0,0,1,.27,6.47c-11.91,12.88-13.15,30.9-3.14,45.91,3.82,5.72,7.51,9,11.93,10.53a4.58,4.58,0,1,1-3,8.67,27.84,27.84,0,0,1-8.64-5Z" transform="translate(900.62 1338.18)"/><path class="cls-36" d="M2180.67,997.87c-5.78-4.82-8.82-11-8.88-17.94a4.58,4.58,0,0,1,4.55-4.62,4.65,4.65,0,0,1,4.64,4.58c0,4.37,2,8,5.94,11.25,10.61,8.49,32.83,10.54,43.46,8.2a4.65,4.65,0,0,1,5.49,3.51,4.59,4.59,0,0,1-3.52,5.45c-12.38,2.73-37.77.72-51.19-10l-.49-.41Z" transform="translate(900.62 1338.18)"/><path class="cls-36" d="M2195.08,960.78a35.56,35.56,0,0,1-7.67-9.67,56.68,56.68,0,0,1-7.42-30.32c.85-17.57,8.69-25.71,23-34.54a4.56,4.56,0,1,1,4.79,7.77c-12.32,7.67-17.94,13.41-18.56,27.21a47.72,47.72,0,0,0,6.2,25.3c2.05,3.54,4.92,7.79,9.05,9.22a4.58,4.58,0,0,1-3,8.65,19.8,19.8,0,0,1-6.31-3.62Z" transform="translate(900.62 1338.18)"/><path class="cls-36" d="M2197.43,965.47a4.58,4.58,0,0,1,4.3-7.9c3.38,1.06,5.59,3.28,7.53,5.23a24.93,24.93,0,0,0,2.66,2.43c13.35,9.8,40,6.23,54.87-3.53a4.59,4.59,0,1,1,5,7.67c-17.78,11.67-48.29,15.75-65.31,3.25a30.74,30.74,0,0,1-3.77-3.37c-1.43-1.43-2.54-2.54-3.76-2.93a4.5,4.5,0,0,1-1.55-.85Z" transform="translate(900.62 1338.18)"/><path class="cls-36" d="M2219.45,943a26.29,26.29,0,0,1-9.55-18.24c-1.51-15.59,8.67-34,18.77-44.53a4.58,4.58,0,1,1,6.6,6.34c-9,9.33-17.42,25.16-16.28,37.29a17.38,17.38,0,0,0,7.7,13.16,4.58,4.58,0,0,1-5.25,7.5c-.71-.49-1.36-1-2-1.52Z" transform="translate(900.62 1338.18)"/><path class="cls-36" d="M2221.21,945.34a4.58,4.58,0,0,1,5-7.59c21.26,11.06,50.07-1.24,67.84-17.34a4.57,4.57,0,1,1,6.13,6.79c-20,18.16-53.09,31.74-78.18,18.69a4.19,4.19,0,0,1-.82-.55Z" transform="translate(900.62 1338.18)"/><path class="cls-36" d="M2255.51,903.38a26.76,26.76,0,0,1-5.91-7.93l-.86-1.54A101.32,101.32,0,0,1,2237.48,867c-4.77-19.24.28-30,9.11-45.36a4.58,4.58,0,1,1,7.94,4.57c-8.79,15.31-12,23.09-8.13,38.61a91.87,91.87,0,0,0,10.25,24.45l.94,1.67c2.1,3.72,3.37,5.84,5.95,6.45a4.58,4.58,0,1,1-2.1,8.92,14,14,0,0,1-5.93-3Z" transform="translate(900.62 1338.18)"/><path class="cls-36" d="M2257,907.26a4.58,4.58,0,0,1,4.47-7.84c2.8,1,5.6,2.35,8.34,3.65a83.41,83.41,0,0,0,8.41,3.63c14.25,4.93,30.38,2.22,50.81-8.52a4.57,4.57,0,0,1,6.17,1.91,4.62,4.62,0,0,1-1.92,6.19c-14.37,7.55-36,16.72-58,9.09a93,93,0,0,1-9.37-4c-2.52-1.2-5-2.38-7.55-3.32a4.31,4.31,0,0,1-1.32-.77Z" transform="translate(900.62 1338.18)"/><path class="cls-36" d="M2274.65,887.16c-15.21-12.7-14.72-40.24-9.17-56.61a4.59,4.59,0,0,1,8.7,3c-4.73,14-5.53,38.85,7.87,47.77a4.58,4.58,0,0,1-5.1,7.62,25.57,25.57,0,0,1-2.3-1.73Z" transform="translate(900.62 1338.18)"/><path class="cls-36" d="M2280.48,891.28a12.13,12.13,0,0,1-3.68-5.29,4.56,4.56,0,0,1,8.55-3.19,3.53,3.53,0,0,0,2.55,2.24c10.79,3.46,40.37-11.9,48.28-17.26a4.61,4.61,0,0,1,6.39,1.24,4.55,4.55,0,0,1-1.26,6.35c-.37.24-38.3,24.14-56.22,18.39a13.57,13.57,0,0,1-4.61-2.48Z" transform="translate(900.62 1338.18)"/><path class="cls-36" d="M2296.13,857.15a30,30,0,0,1-6-7.26c-9.89-15.76-8.69-33.84,3.49-52.3a4.59,4.59,0,0,1,7.67,5.06c-7,10.63-13.29,26.6-3.41,42.37,1.86,2.9,4.32,6.25,7.29,6.56a4.58,4.58,0,0,1-.93,9.11,14.78,14.78,0,0,1-8.11-3.54Z" transform="translate(900.62 1338.18)"/><path class="cls-36" d="M2302.62,860.8a26.76,26.76,0,0,1-3.2-3.19,4.59,4.59,0,1,1,7-5.91,13.88,13.88,0,0,0,11.77,5.17c18-.52,44-25.16,53.29-37.6a4.53,4.53,0,0,1,6.4-.94,4.71,4.71,0,0,1,.95,6.42c-6,8-35.54,40.53-60.34,41.3a23,23,0,0,1-15.89-5.25Z" transform="translate(900.62 1338.18)"/><path class="cls-36" d="M2326.85,823.86a18.67,18.67,0,0,1-5.9-9c-5.9-19.07,12.76-51,18.08-58.49a4.59,4.59,0,0,1,7.5,5.31c-7.63,10.75-20.84,37.46-16.83,50.47a9.45,9.45,0,0,0,6.25,6.52,4.59,4.59,0,1,1-3.16,8.61,20.16,20.16,0,0,1-5.94-3.39Z" transform="translate(900.62 1338.18)"/><path class="cls-36" d="M2333.7,827.28l0,0a8.6,8.6,0,0,1-3-6.22,4.59,4.59,0,0,1,9.14-.84,25.81,25.81,0,0,0,3.57-.2c13.66-1.38,27.15-14.73,32.82-26.61a4.62,4.62,0,0,1,6.13-2.13,4.55,4.55,0,0,1,2.13,6.11c-6.72,14-22.22,29.92-40.16,31.75-3.37.33-7.52.77-10.63-1.83Z" transform="translate(900.62 1338.18)"/><path class="cls-36" d="M2366.57,780.81a4.23,4.23,0,0,1-1.32-1.84,56,56,0,0,0-4.6-8.54c-.65-1.12-1.4-2.29-2.07-3.49-13.46-23.15-2.53-42.52,8.75-58.87a4.61,4.61,0,0,1,7.59,5.23c-12.73,18.35-18.15,32.27-8.43,49,.63,1.13,1.35,2.24,2,3.32a62.51,62.51,0,0,1,5.29,10,4.58,4.58,0,0,1-7.22,5.17Z" transform="translate(900.62 1338.18)"/><path class="cls-36" d="M2366.26,779.68c-.63-.53-1.25-1.09-1.85-1.69a4.58,4.58,0,0,1,6.47-6.49c13.72,13.88,44.94.59,58.56-9.53a4.6,4.6,0,0,1,5.49,7.37c-14.38,10.64-49.28,26.54-68.67,10.34Z" transform="translate(900.62 1338.18)"/><path class="cls-36" d="M2388.92,744.59c-11.63-9.69-9.79-38.82-9.48-42.49a4.52,4.52,0,0,1,4.91-4.22,4.63,4.63,0,0,1,4.23,4.92c-1.09,13.81,1,33.87,7.8,35.59a4.58,4.58,0,0,1-2.22,8.89,13,13,0,0,1-5.24-2.69Z" transform="translate(900.62 1338.18)"/><path class="cls-36" d="M2390.45,749.79a4.59,4.59,0,0,1,3.27-8.1c15.46,1.16,30.38-8.88,40.19-17.49a4.58,4.58,0,1,1,6,6.88C2423.77,745.3,2408,752,2393,750.83a4.56,4.56,0,0,1-2.59-1Z" transform="translate(900.62 1338.18)"/><path class="cls-36" d="M2415.86,705a3.54,3.54,0,0,1-.81-.89,86,86,0,0,0-8.36-9.74c-8-8.39-16.24-17.1-8.29-35.24a4.58,4.58,0,1,1,8.39,3.69c-5.51,12.55-1.23,17.06,6.55,25.24a92,92,0,0,1,9.18,10.77,4.58,4.58,0,0,1-6.66,6.17Z" transform="translate(900.62 1338.18)"/><path class="cls-36" d="M2421.94,705.91a16.37,16.37,0,0,1-3.44-4,4.58,4.58,0,1,1,7.8-4.79c2.29,3.74,7.57,4.19,11.58,3.91,13.89-1,30.09-11.14,32.49-16.74a4.58,4.58,0,0,1,6-2.39,4.53,4.53,0,0,1,2.37,6c-4.23,9.91-24.6,21.13-40.26,22.26-8.1.59-13.27-1.52-16.58-4.27Z" transform="translate(900.62 1338.18)"/><path class="cls-36" d="M2434.26,673.4a2,2,0,0,1-.33-.3c-14.29-14.41-23-37-10.36-55.07a4.55,4.55,0,0,1,6.36-1.14,4.5,4.5,0,0,1,1.1,6.37c-9.57,13.74-2.2,31.68,9.41,43.4a4.58,4.58,0,0,1-6.18,6.74Z" transform="translate(900.62 1338.18)"/><path class="cls-37" d="M2056,647.85c10.26-2.1,19-30.93,21.69-41.77,8.3-33.93,7.6-75-6.15-107.52-5-11.68-18-37.35-30.92-21-10.58,13.33-4.74,41.64-3.06,56.68,2.23,19.94,5.37,39.91,10.39,59.32,4,15.69,16.17,42.88,8,54.32Z" transform="translate(900.62 1338.18)"/><path class="cls-37" d="M2054.86,644.29c-14.18-12.68-35.4-21.52-53.28-26.45-23.54-6.49-47-5.73-70.74-.56-10.33,2.25-37.47,10-36.88,24.24,1.08,26.48,72.72,22.77,87.83,21.53,20.31-1.67,57.18-4,73.07-18.76Z" transform="translate(900.62 1338.18)"/><path class="cls-37" d="M1992.85,553.11c7.75-6.1,12.1-23.69,14.75-32.66,6.68-22.4,9.52-50.18,5.12-73.37-2.19-11.39-10.21-36.14-25.91-35.52-11.75.48-19,19.51-21.66,28.75-4.66,16.3-1.88,33.23,1.39,49.51,5.06,24.73,12.28,49.49,26.31,63.29Z" transform="translate(900.62 1338.18)"/><path class="cls-37" d="M1991.22,552.29c-6.25-10.7-22.09-16.85-33.22-20.89a185.34,185.34,0,0,0-61.92-11c-16.17,0-48.85.24-60.37,14.7-21.53,27,39.84,34.71,53.81,35.22,21.87.83,43.43.86,65.09-2.73,10.59-1.79,28.09-3.23,36.61-15.27Z" transform="translate(900.62 1338.18)"/><path class="cls-37" d="M1932.75,480.75c9.84-1.42,8.52-41.07,8.54-45.58,0-22.14-.52-47.85-10.44-68.14-5.41-11.13-19.49-31.42-34.73-23.22-28.25,15.14-2.71,69.43,7,87.2,9.81,17.95,27.39,38.07,29.66,49.74Z" transform="translate(900.62 1338.18)"/><path class="cls-37" d="M1930.27,479.91c-7.94-7.18-19.88-11.67-29.56-15.55-19.26-7.72-40.12-14.8-61-16.22-16.78-1.17-46-1.46-59.41,10.74-22.89,20.67,35.64,29.74,45.91,31.49,34.36,5.86,76,13.21,104-10.46Z" transform="translate(900.62 1338.18)"/><path class="cls-37" d="M1857.75,415.8c3.89-11,1.53-24.25.16-35.4-2.31-18.67-6-39.37-15.33-55.79C1836.13,313.32,1823,294.43,1807,299c-24.09,6.8-10.67,44.55-1.67,58.52s20.75,25.37,32.06,37.5c6.37,6.85,16.29,14.19,20.39,20.81Z" transform="translate(900.62 1338.18)"/><path class="cls-37" d="M1855.26,417.44c-6.5-7.94-17.66-13.62-26.8-18.31-21.86-11.2-80.39-37.09-100.69-10.91-15.77,20.39,30.33,28.42,42.34,30.58,18.13,3.26,36.07,4.2,54.48,4.36,10.84.08,27.13,3,30.67-5.72Z" transform="translate(900.62 1338.18)"/><path class="cls-37" d="M2088.84,730.81c-6.9-17.65-36.9-33.1-52.51-40.27-16.21-7.44-103.38-37-91.19,7,9.29,33.37,58.47,37.6,86.54,38.76,15.09.63,28.79-1.77,43.35-4.81,4.93-1,10.81-3.06,13.81-.68Z" transform="translate(900.62 1338.18)"/><path class="cls-37" d="M2120.34,718.54c5.21-23.45,27-48.33,43.35-64.5,16.58-16.42,38.94-33.21,63.58-32.53,21.19.59,29.37,18.17,22.09,36.59-18.48,46.93-83.74,53.59-129,60.44Z" transform="translate(900.62 1338.18)"/><path class="cls-37" d="M2123.31,628.3c22.51-10.09,46-10.48,66.52-26.76A102,102,0,0,0,2226,545c3.23-13.58,3.89-36.88-14.92-37.32-31.8-.77-60.35,45.8-71.81,70.14-5.94,12.64-20.6,34-16,50.47Z" transform="translate(900.62 1338.18)"/><path class="cls-37" d="M2122.08,539.67c12.66-4.3,27.43-18.31,37.06-27.57,15.91-15.3,32.16-36.49,40.8-57.16,4.91-11.8,10.62-36.26-5.36-43-25.1-10.58-55,43.55-62.57,59.93-10.26,22.3-21.08,47-9.93,67.8Z" transform="translate(900.62 1338.18)"/><path class="cls-37" d="M2107.69,446c12.78-4,24.65-21.7,32.61-31.19,13.48-16.1,26.45-36.42,29.87-57.53,1.65-10.18,3.28-34.51-11.23-38.08-10.38-2.55-22.76,14.36-27.66,20.9-9,12-13.55,26-15.93,40.64-2.34,14.89-3.29,30.06-5.45,45-.84,6-.05,19.25-2.21,20.28Z" transform="translate(900.62 1338.18)"/><path class="cls-37" d="M2104.35,443.52c-.54-11.85-9.13-24.15-14.66-34.2-11.94-21.75-25.13-41.81-45-57-6.76-5.17-29.58-21.23-37.28-12.63-15,16.81,31.56,57.17,40.49,65.29,11.84,10.72,24,21,37.76,29.25,6.88,4.12,19.12,7.9,18.71,9.31Z" transform="translate(900.62 1338.18)"/><path class="cls-37" d="M2086.68,340.76c10.15-12.31,24.2-19.74,34-33.3,13.2-18.23,28.34-42.06,31.36-65,1.57-11.85-.44-34-16.37-32.23-27.55,3-39.45,53.39-44.52,74.66-4.26,17.69-9,40.82-4.5,55.89Z" transform="translate(900.62 1338.18)"/><path class="cls-37" d="M2084.19,338.25c1.21-13.16-8.09-30.3-13.65-41.52-9.59-19.38-23.77-37.59-41.11-50.56-7.75-5.81-30.83-24.18-41.88-18.09-25.26,13.87,83,105.54,96.64,110.17Z" transform="translate(900.62 1338.18)"/><path class="cls-37" d="M2065.53,260.31c12.1-12.71,16-35.66,20.34-52.05,9.07-33.69,9.14-87.08-28.78-103.17-36.07-15.3-29.41,49.51-25.61,66.38,4.66,20.57,14.36,40.16,23.15,59.25,5,10.76,14.14,24.18,10.9,29.59Z" transform="translate(900.62 1338.18)"/><path class="cls-37" d="M2118.32,792.23c5.14-15.25,16-28.38,28.53-38.48,18.11-14.59,41-22.47,64-25,8.51-.93,38.28-4.68,41,8.91,2,9.9-17.7,24.74-24.16,30.12-13.89,11.5-29.61,18.65-46.77,23.61-13.48,3.9-56.34,17-62.64.85Z" transform="translate(900.62 1338.18)"/><path class="cls-37" d="M2108.83,866.72c1.84-.59,4.35-4.46,6.4-7.08,12.48-16.24,27.91-30,46.69-38.69,28-12.94,62.16-17.19,90-1.38,20.91,11.89,24.72,32.9,3.42,47.38-19.7,13.39-46.64,13.59-69.41,12.54-19.92-.93-43-.33-62.64-4.4-6.36-1.32-12-4.19-14.43-8.37Z" transform="translate(900.62 1338.18)"/><path class="cls-37" d="M2090.21,951.93c.11.5-1.68,2.08-.06.92,20.13-20.08,44.92-30.24,73.21-34.84,14.12-2.31,27.94-3.49,41.71.89,6.67,2.13,22.67,7.29,26.3,15.16,7.31,16.07-19.88,28.14-31.46,31.61-28.92,8.69-65.36,6.59-95.3,3.33-7.24-.79-14.16-5.3-14.4-17.07Z" transform="translate(900.62 1338.18)"/><path class="cls-37" d="M2106.36,870c-8.41-13.95-17.28-27.31-27.1-40.45-8.46-11.38-78.72-90.36-91.35-52.34-4,12.19,6.87,28.85,13.78,37.68,12,15.23,27.7,25.93,44.54,35,19.68,10.59,40.71,16.79,60.13,20.12Z" transform="translate(900.62 1338.18)"/><path class="cls-37" d="M2092.66,962.71c-.39-9.11-7.41-19.39-12.08-26.68-13.85-21.61-33.79-43.78-55.29-58-9.88-6.52-35.09-23.16-48.34-18.25-28.91,10.69,27,59.13,35.39,65.5,15.8,12,33.53,23.87,52.23,30.74,6.56,2.41,18.23,5.81,28.09,6.67Z" transform="translate(900.62 1338.18)"/><path class="cls-37" d="M2069.72,1074.38c9.67-20,28.49-33.77,47.11-45.23,22.79-14,51.32-29.62,79.25-23.82,26.6,5.51,33.27,27.25,14.55,47.11-14.63,15.55-39.64,19.91-59.92,23.66-20.77,3.84-41.52.85-62.38,2.27-6,.39-17.72-2.07-18.61-4Z" transform="translate(900.62 1338.18)"/><path class="cls-37" d="M2062.27,1076.83c1.48-3.15.59-6,.08-9.6-2.88-20.57-12.31-40.64-23.84-57.63-9-13.3-69.18-72.12-79.77-33.44-8.64,31.61,41,65,61.35,80.53,12,9.13,35.29,23.6,42.18,20.14Z" transform="translate(900.62 1338.18)"/><path class="cls-34" d="M2016.37,1258.84a4.58,4.58,0,0,0,4.4-3.18c81.67-256.58,115.75-477.3,104.26-674.75-6.13-105.22-28.49-210-50.13-311.34-2.65-12.18-5.23-24.33-7.82-36.48a4.57,4.57,0,1,0-8.93,1.91c2.53,12.13,5.17,24.31,7.75,36.48,21.59,101,43.89,205.44,50,310,11.39,196.31-22.57,415.95-103.9,671.42a4.6,4.6,0,0,0,3,5.77,4.33,4.33,0,0,0,1.36.21Z" transform="translate(900.62 1338.18)"/><path class="cls-34" d="M2111.17,838.42a4.59,4.59,0,0,0,4.59-4.25c2.3-32.7-11.15-72.83-21-102.13l-.38-1.13c-44.47-132.65-135-249.38-261.76-337.54a4.58,4.58,0,0,0-5.26,7.51c125.19,87.06,214.5,202.18,258.33,332.94l.37,1.13c9.62,28.58,22.7,67.7,20.53,98.56a4.55,4.55,0,0,0,4.23,4.9c.07,0,.2,0,.33,0Z" transform="translate(900.62 1338.18)"/><path class="cls-36" d="M2384.55,278.49c-6.52-21.47,19.69-35.88,35.86-20.62,30.51,28.78-27.95,58.28-35.86,20.62Z" transform="translate(900.62 1338.18)"/><path class="cls-37" d="M2242.67,60.56c26.71,11.43,9,52.93-17.74,41.49s-9-52.91,17.74-41.49Z" transform="translate(900.62 1338.18)"/><path class="cls-34" d="M2249.73,377.45c.63-.72,1.21-1.46,1.85-2.18,6.37-7.49,17.91-11.34,27.21-6.86a24,24,0,0,1,13.89,24.44c-.13.93-.21,1.88-.29,2.84-1.61,15.65-19.33,24.84-33.33,18.86s-19.53-25.13-9.33-37.1Z" transform="translate(900.62 1338.18)"/><path class="cls-38" d="M1824.74,1130.59c7-1.44,14-3.07,20.94-4.46,18.92-3.85,36.47-5,55.21.71,20,6.13,36.89,18.37,51.34,33a519.66,519.66,0,0,1-12.39-85.76c-9.89,3.24-22.81,2.06-31.54,1.25-13.85-1.15-25.83-3.17-38-10-14.18-8-26.56-19.5-36.47-32.4-2.58-3.32-5-9.44-8.92-10.85,28.85,1.92,62.1,2.33,87.69,17.09,10.2,5.87,21.21,16.43,26.81,27.91-.75-13.86-1.16-28.2-1.15-43.23q0-12.45.42-24.89c-14.35,3.4-33.76-1.47-48.08-8.63-19.44-9.64-45.84-28-55.54-48.78,8.3,1.17,17,5.64,25.24,7.53,17.08,3.82,34.2,4.17,49.62,13.6,11.13,6.78,26,18.63,28.89,32.8.8-22.88,2.41-45.73,4.5-68.49-13.88,7.58-34.54,2.31-49.69-5.92-23.43-12.73-38.37-34.09-57.23-52,23.65,1.8,51,7.23,72,18.32,13.52,7.14,32.5,20.91,35.13,37.85q2.52-27,5.58-53.61c-12.51,8.63-40.42-8-49.89-14.45-14.73-10.13-27.36-23.09-39.87-35.75-4-4-9.22-8.36-11.88-13,30-.39,64.18,7.29,85.13,29.82,2.11,2.21,12.94,14.85,17.66,23.33.47-4.28,1-8.62,1.49-12.94,2.11-18.43,4.25-37,6.16-55.63-12,7-34.2,4.8-48.1-1.21-23.46-10.28-38.5-25.58-52.74-45.89,8.34.83,16.8,2.32,25.16,3.39,14.87,1.91,30.32,2,44.52,7.27,14.64,5.56,26.89,15.72,31.76,30.49,2.08-20.71,3.83-41.5,5-62.33-20.09,3.15-39.48,6.31-60.51-1.91a94.26,94.26,0,0,1-39.74-29.47c-2.71-3.49-5-7.36-7.94-10.63,25.46,2.71,53.71-.15,77.65,10.23,10.39,4.54,25.59,13.52,30.86,25.36,1-21,1.39-42.11.74-63.19-9.13,7.84-29.71,8.16-40.09,8.09-22.21-.11-52.67-14-62.24-35.39,10.61.16,20.31,2.92,31.26,2.07,14.87-1.16,29.73-5.52,44.72-3.61,7.95,1,19.6,6.24,25.71,14.11q-.91-17.13-2.86-34.22c-4,4.67-13.15,4.85-18.46,4.88a78.76,78.76,0,0,1-36.16-8.62c-14.12-7.17-25.67-17.52-37.17-28.2-3.18-2.92-6.26-7.09-10.19-8.92,8-.4,16.47,1.38,24.47,2.13,14.88,1.26,30.53.77,44.81,5.36,11.77,3.78,24.68,11.81,31.43,23a487.35,487.35,0,0,0-9.22-49.71c-3.83-.81-11.66-3.12-15.88-4.27a74.92,74.92,0,0,1-30.05-16.87c-13.19-12.17-22.09-29-30.22-44.7,7.55,1.25,14.71,5.82,21.37,9.32,13,6.89,29.16,12.4,40.12,22.5a60.66,60.66,0,0,1,7.67,8.63c-.22-.73-.42-1.45-.64-2.18a2.76,2.76,0,0,1,1.82-3.45,2.72,2.72,0,0,1,3.46,1.8c.94,3,1.85,6,2.71,9.11.72-9.08,3.51-17.94,8.42-24.87,12.11-17.08,31.56-22.69,47.07-35.37-7,7-7.5,19.64-8.83,28.68-2,13.41-4.28,26.53-14.14,36.65-5.78,5.92-17.57,14.16-27.16,15.26,3.73,15.63,6.61,31.27,8.76,46.93,3.84-9.62,8.31-18.82,16.11-26.51,18.62-18.35,50.11-5.19,73.41-10.77-8.1,20.41-25.85,45.39-48,51.77a64.49,64.49,0,0,1-33.27.31,25.2,25.2,0,0,1-6.73-2.16c1.29,11.22,2.2,22.48,2.8,33.75a41.25,41.25,0,0,1,31.92-16.68c14-.55,27.21,4.47,40.82,7,8.41,1.53,16.66,1.35,25.06,1.79-6.1,6.06-11.31,12.72-18,18.28-12.06,10.1-26.67,14.27-42.31,14-13.27-.19-30.26-4.68-37.13-16.28,1,23.61.67,47.14-.49,70.66,3.19-9,12.15-17.27,19.17-21.27,22.92-13,52-7.35,77.15-6.81-11.5,26.83-32.73,47.07-63.49,46.29a70.28,70.28,0,0,1-28.64-7.25,21.86,21.86,0,0,1-4.59-2.7c-1,18.7-2.61,37.36-4.44,56,4.73-9.54,12.58-16.55,22.93-21.16,14.36-6.38,29.72-5.3,44.69-1.65,10.1,2.52,21.06,7,31.65,6.92-5.93,6.69-11.18,14.42-18.37,20.26-12.15,9.9-29.5,15.31-44.95,16.73-9.58.89-20.49,1.19-29.81-1.54a10.68,10.68,0,0,1-7.43-6.64c-1.86,17.94-3.91,35.83-6,53.64-.18,1.55-.35,3.12-.52,4.68,3.68-7.75,9.65-13.9,16.94-19.32,23.91-17.8,56.39-6.53,82,1.16-4.22,3.16-7.45,7.86-10.66,12-9.36,12-20.77,19-35.62,22.89-12,3.13-25.61,4.92-38,3-4.83-.75-11.54-.86-15.88-9.22-1.93,16.94-3.83,34.06-5.51,51.24,21.1-34,69.75-23.64,104.4-18.58-8.15,3.81-13.93,13.6-20.62,19.48-13.59,11.93-28.57,17.83-46.69,17.17-14.8-.55-27.7-5-38-8-2.17,23.42-3.88,47-4.67,70.55.82-1.13,1.57-2.31,2.37-3.45a86.48,86.48,0,0,1,28.58-26.27c25.72-14.55,53.75-8.88,81.55-9.56-6.29,3.53-9.93,11.23-14.35,16.81-10.06,12.68-23.77,20.6-39.35,24.48s-30.14,5.76-45.84,2c-4.93-1.17-9.78-2.52-13-2.14-.28,8.57-.47,17.13-.47,25.66,0,15.76.44,30.79,1.31,45.23.27-1.36.56-2.76,1-4.1a69,69,0,0,1,19.79-31.57c26.77-23.55,58.79-17.4,90.88-11.64-4.62.78-9.24,9.94-11.68,13.28-8.76,11.94-18.78,22-32.44,28.29-20,9.13-42.16,10.35-67.2,11.56,2.14,31.2,6.36,59.55,12.79,86,1-25.22,14.63-43.18,35.16-56.82,15.16-10.08,30.68-11.24,47.34-16.74,5.52-1.85,11.39-5.88,16.85-5.3,3.34,26.08-33.3,55.66-52.26,67.58-14.72,9.27-29.81,12.9-46.6,13.28a390,390,0,0,0,12.82,41.91c1.52,4.15,3,8.49,4.51,12.93,5.94,17.32,12,35.26,22.66,48.41a2.73,2.73,0,0,1-.42,3.87,2.57,2.57,0,0,1-1.87.58,2.61,2.61,0,0,1-2-1c-11.21-13.91-17.79-33.12-23.56-50.1-1.52-4.38-3-8.7-4.48-12.78a398.49,398.49,0,0,1-13.56-44.87c-18.74,12.57-53.91,8.19-76.62-.06-16.61-6-32.23-13.95-47.44-22.87-3.74-2.21-7.51-5.46-12-5.81,1.85-2,5.25-2,8-2.59Z" transform="translate(900.62 1338.18)"/></g></g></svg>